<mxfile host="drawio-plugin" modified="2023-04-21T10:48:30.557Z" agent="5.0 (Windows NT 6.2; Win64; x64) AppleWebKit/537.36 (KHTML, like Gecko) Chrome/104.0.5112.102 Safari/537.36" etag="jrQ53W2azH_O7-NUGjTd" version="20.5.3" type="embed"><diagram name="Page-1" id="fwxXnzf6ZEVrYqUmG_S1"><mxGraphModel dx="3357" dy="525" grid="1" gridSize="10" guides="1" tooltips="1" connect="1" arrows="1" fold="1" page="1" pageScale="1" pageWidth="850" pageHeight="1100" math="0" shadow="0"><root><mxCell id="0"/><mxCell id="1" parent="0"/><mxCell id="775" style="edgeStyle=orthogonalEdgeStyle;rounded=0;orthogonalLoop=1;jettySize=auto;html=1;exitX=0.5;exitY=0;exitDx=0;exitDy=0;entryX=0;entryY=0.5;entryDx=0;entryDy=0;" parent="1" source="16" target="513" edge="1"><mxGeometry relative="1" as="geometry"/></mxCell><mxCell id="16" value="Entity" style="swimlane;fontStyle=1;align=center;verticalAlign=top;childLayout=stackLayout;horizontal=1;startSize=20;horizontalStack=0;resizeParent=1;resizeParentMax=0;resizeLast=0;collapsible=1;marginBottom=0;" parent="1" vertex="1"><mxGeometry x="-1410" y="550" width="550" height="2028" as="geometry"><mxRectangle x="-1150" y="630" width="110" height="60" as="alternateBounds"/></mxGeometry></mxCell><mxCell id="17" value="+ kind: EntityKind" style="text;strokeColor=none;fillColor=none;align=left;verticalAlign=top;spacingLeft=4;spacingRight=4;overflow=hidden;rotatable=0;points=[[0,0.5],[1,0.5]];portConstraint=eastwest;" parent="16" vertex="1"><mxGeometry y="20" width="550" height="20" as="geometry"/></mxCell><mxCell id="32" value="+ id: String" style="text;strokeColor=none;fillColor=none;align=left;verticalAlign=top;spacingLeft=4;spacingRight=4;overflow=hidden;rotatable=0;points=[[0,0.5],[1,0.5]];portConstraint=eastwest;" parent="16" vertex="1"><mxGeometry y="40" width="550" height="20" as="geometry"/></mxCell><mxCell id="33" value="+ position: Point" style="text;strokeColor=none;fillColor=none;align=left;verticalAlign=top;spacingLeft=4;spacingRight=4;overflow=hidden;rotatable=0;points=[[0,0.5],[1,0.5]];portConstraint=eastwest;" parent="16" vertex="1"><mxGeometry y="60" width="550" height="20" as="geometry"/></mxCell><mxCell id="34" value="+ images: List&lt;PImage&gt;" style="text;strokeColor=none;fillColor=none;align=left;verticalAlign=top;spacingLeft=4;spacingRight=4;overflow=hidden;rotatable=0;points=[[0,0.5],[1,0.5]];portConstraint=eastwest;" parent="16" vertex="1"><mxGeometry y="80" width="550" height="20" as="geometry"/></mxCell><mxCell id="36" value="+ imageIndex: int" style="text;strokeColor=none;fillColor=none;align=left;verticalAlign=top;spacingLeft=4;spacingRight=4;overflow=hidden;rotatable=0;points=[[0,0.5],[1,0.5]];portConstraint=eastwest;" parent="16" vertex="1"><mxGeometry y="100" width="550" height="20" as="geometry"/></mxCell><mxCell id="37" value="+ resourceLimit: int" style="text;strokeColor=none;fillColor=none;align=left;verticalAlign=top;spacingLeft=4;spacingRight=4;overflow=hidden;rotatable=0;points=[[0,0.5],[1,0.5]];portConstraint=eastwest;" parent="16" vertex="1"><mxGeometry y="120" width="550" height="20" as="geometry"/></mxCell><mxCell id="38" value="+ recourceCount: int" style="text;strokeColor=none;fillColor=none;align=left;verticalAlign=top;spacingLeft=4;spacingRight=4;overflow=hidden;rotatable=0;points=[[0,0.5],[1,0.5]];portConstraint=eastwest;" parent="16" vertex="1"><mxGeometry y="140" width="550" height="20" as="geometry"/></mxCell><mxCell id="39" value="+ actionPeriod: double" style="text;strokeColor=none;fillColor=none;align=left;verticalAlign=top;spacingLeft=4;spacingRight=4;overflow=hidden;rotatable=0;points=[[0,0.5],[1,0.5]];portConstraint=eastwest;" parent="16" vertex="1"><mxGeometry y="160" width="550" height="20" as="geometry"/></mxCell><mxCell id="40" value="+animationPeriod: double" style="text;strokeColor=none;fillColor=none;align=left;verticalAlign=top;spacingLeft=4;spacingRight=4;overflow=hidden;rotatable=0;points=[[0,0.5],[1,0.5]];portConstraint=eastwest;" parent="16" vertex="1"><mxGeometry y="180" width="550" height="20" as="geometry"/></mxCell><mxCell id="41" value="+ health: int" style="text;strokeColor=none;fillColor=none;align=left;verticalAlign=top;spacingLeft=4;spacingRight=4;overflow=hidden;rotatable=0;points=[[0,0.5],[1,0.5]];portConstraint=eastwest;" parent="16" vertex="1"><mxGeometry y="200" width="550" height="20" as="geometry"/></mxCell><mxCell id="42" value="+ healthLimit: int" style="text;strokeColor=none;fillColor=none;align=left;verticalAlign=top;spacingLeft=4;spacingRight=4;overflow=hidden;rotatable=0;points=[[0,0.5],[1,0.5]];portConstraint=eastwest;" parent="16" vertex="1"><mxGeometry y="220" width="550" height="20" as="geometry"/></mxCell><mxCell id="584" value="+ SAPLING_ACTION_ANIMATION_PERIOD: double &lt;&lt;static&gt;&gt;" style="text;strokeColor=none;fillColor=none;align=left;verticalAlign=top;spacingLeft=4;spacingRight=4;overflow=hidden;rotatable=0;points=[[0,0.5],[1,0.5]];portConstraint=eastwest;" parent="16" vertex="1"><mxGeometry y="240" width="550" height="20" as="geometry"/></mxCell><mxCell id="585" value="+ SAPLING_HEALTH_LIMIT: int &lt;&lt;static&gt;&gt;" style="text;strokeColor=none;fillColor=none;align=left;verticalAlign=top;spacingLeft=4;spacingRight=4;overflow=hidden;rotatable=0;points=[[0,0.5],[1,0.5]];portConstraint=eastwest;" parent="16" vertex="1"><mxGeometry y="260" width="550" height="20" as="geometry"/></mxCell><mxCell id="591" value="+ STUMP_KEY: string &lt;&lt;static&gt;&gt;" style="text;strokeColor=none;fillColor=none;align=left;verticalAlign=top;spacingLeft=4;spacingRight=4;overflow=hidden;rotatable=0;points=[[0,0.5],[1,0.5]];portConstraint=eastwest;" parent="16" vertex="1"><mxGeometry y="280" width="550" height="20" as="geometry"/></mxCell><mxCell id="592" value="+ STUMP_NUM_PROPERTIES: int &lt;&lt;static&gt;&gt;" style="text;strokeColor=none;fillColor=none;align=left;verticalAlign=top;spacingLeft=4;spacingRight=4;overflow=hidden;rotatable=0;points=[[0,0.5],[1,0.5]];portConstraint=eastwest;" parent="16" vertex="1"><mxGeometry y="300" width="550" height="20" as="geometry"/></mxCell><mxCell id="593" value="+ SAPLING-KEY: string &lt;&lt;static&gt;&gt;" style="text;strokeColor=none;fillColor=none;align=left;verticalAlign=top;spacingLeft=4;spacingRight=4;overflow=hidden;rotatable=0;points=[[0,0.5],[1,0.5]];portConstraint=eastwest;" parent="16" vertex="1"><mxGeometry y="320" width="550" height="20" as="geometry"/></mxCell><mxCell id="594" value="+ SAPLING_HEALTH: int &lt;&lt;static&gt;&gt;" style="text;strokeColor=none;fillColor=none;align=left;verticalAlign=top;spacingLeft=4;spacingRight=4;overflow=hidden;rotatable=0;points=[[0,0.5],[1,0.5]];portConstraint=eastwest;" parent="16" vertex="1"><mxGeometry y="340" width="550" height="20" as="geometry"/></mxCell><mxCell id="597" value="+ SAPLING_NUM_PROPERTIES: int &lt;&lt;static&gt;&gt;" style="text;strokeColor=none;fillColor=none;align=left;verticalAlign=top;spacingLeft=4;spacingRight=4;overflow=hidden;rotatable=0;points=[[0,0.5],[1,0.5]];portConstraint=eastwest;" parent="16" vertex="1"><mxGeometry y="360" width="550" height="20" as="geometry"/></mxCell><mxCell id="598" value="+ OBSTACLE_KEY: string &lt;&lt;static&gt;&gt;" style="text;strokeColor=none;fillColor=none;align=left;verticalAlign=top;spacingLeft=4;spacingRight=4;overflow=hidden;rotatable=0;points=[[0,0.5],[1,0.5]];portConstraint=eastwest;" parent="16" vertex="1"><mxGeometry y="380" width="550" height="20" as="geometry"/></mxCell><mxCell id="599" value="+ OBSTACLE_ANIMATION_PERIOD: int &lt;&lt;static&gt;&gt;" style="text;strokeColor=none;fillColor=none;align=left;verticalAlign=top;spacingLeft=4;spacingRight=4;overflow=hidden;rotatable=0;points=[[0,0.5],[1,0.5]];portConstraint=eastwest;" parent="16" vertex="1"><mxGeometry y="400" width="550" height="20" as="geometry"/></mxCell><mxCell id="600" value="+ OBSTACLE_NUM_PROPERTIES: int &lt;&lt;static&gt;&gt;" style="text;strokeColor=none;fillColor=none;align=left;verticalAlign=top;spacingLeft=4;spacingRight=4;overflow=hidden;rotatable=0;points=[[0,0.5],[1,0.5]];portConstraint=eastwest;" parent="16" vertex="1"><mxGeometry y="420" width="550" height="20" as="geometry"/></mxCell><mxCell id="601" value="+ DUDE_KEY: String &lt;&lt;static&gt;&gt;" style="text;strokeColor=none;fillColor=none;align=left;verticalAlign=top;spacingLeft=4;spacingRight=4;overflow=hidden;rotatable=0;points=[[0,0.5],[1,0.5]];portConstraint=eastwest;" parent="16" vertex="1"><mxGeometry y="440" width="550" height="20" as="geometry"/></mxCell><mxCell id="602" value="+ DUDE_ACTION_PERIOD: int &lt;&lt;static&gt;&gt;" style="text;strokeColor=none;fillColor=none;align=left;verticalAlign=top;spacingLeft=4;spacingRight=4;overflow=hidden;rotatable=0;points=[[0,0.5],[1,0.5]];portConstraint=eastwest;" parent="16" vertex="1"><mxGeometry y="460" width="550" height="20" as="geometry"/></mxCell><mxCell id="603" value="+ DUDE_ANIMATION_PERIOD: int &lt;&lt;static&gt;&gt;" style="text;strokeColor=none;fillColor=none;align=left;verticalAlign=top;spacingLeft=4;spacingRight=4;overflow=hidden;rotatable=0;points=[[0,0.5],[1,0.5]];portConstraint=eastwest;" parent="16" vertex="1"><mxGeometry y="480" width="550" height="20" as="geometry"/></mxCell><mxCell id="605" value="+ DUDE_LIMIT: int &lt;&lt;static&gt;&gt;" style="text;strokeColor=none;fillColor=none;align=left;verticalAlign=top;spacingLeft=4;spacingRight=4;overflow=hidden;rotatable=0;points=[[0,0.5],[1,0.5]];portConstraint=eastwest;" parent="16" vertex="1"><mxGeometry y="500" width="550" height="20" as="geometry"/></mxCell><mxCell id="606" value="+ DUDE_NUM_PROPERTIES: int &lt;&lt;static&gt;&gt;" style="text;strokeColor=none;fillColor=none;align=left;verticalAlign=top;spacingLeft=4;spacingRight=4;overflow=hidden;rotatable=0;points=[[0,0.5],[1,0.5]];portConstraint=eastwest;" parent="16" vertex="1"><mxGeometry y="520" width="550" height="20" as="geometry"/></mxCell><mxCell id="607" value="+ HOUSE_KEY: String &lt;&lt;static&gt;&gt;" style="text;strokeColor=none;fillColor=none;align=left;verticalAlign=top;spacingLeft=4;spacingRight=4;overflow=hidden;rotatable=0;points=[[0,0.5],[1,0.5]];portConstraint=eastwest;" parent="16" vertex="1"><mxGeometry y="540" width="550" height="20" as="geometry"/></mxCell><mxCell id="608" value="+ HOUSE_NUM_PROPERTIES: int &lt;&lt;static&gt;&gt;" style="text;strokeColor=none;fillColor=none;align=left;verticalAlign=top;spacingLeft=4;spacingRight=4;overflow=hidden;rotatable=0;points=[[0,0.5],[1,0.5]];portConstraint=eastwest;" parent="16" vertex="1"><mxGeometry y="560" width="550" height="20" as="geometry"/></mxCell><mxCell id="609" value="+ FAIRY_KEY: String &lt;&lt;static&gt;&gt;" style="text;strokeColor=none;fillColor=none;align=left;verticalAlign=top;spacingLeft=4;spacingRight=4;overflow=hidden;rotatable=0;points=[[0,0.5],[1,0.5]];portConstraint=eastwest;" parent="16" vertex="1"><mxGeometry y="580" width="550" height="20" as="geometry"/></mxCell><mxCell id="610" value="+ FAIRY_ANIMATION_PERIOD: int &lt;&lt;static&gt;&gt;" style="text;strokeColor=none;fillColor=none;align=left;verticalAlign=top;spacingLeft=4;spacingRight=4;overflow=hidden;rotatable=0;points=[[0,0.5],[1,0.5]];portConstraint=eastwest;" parent="16" vertex="1"><mxGeometry y="600" width="550" height="20" as="geometry"/></mxCell><mxCell id="611" value="+ FAIRY_ACTION_PERIOD: int &lt;&lt;static&gt;&gt;" style="text;strokeColor=none;fillColor=none;align=left;verticalAlign=top;spacingLeft=4;spacingRight=4;overflow=hidden;rotatable=0;points=[[0,0.5],[1,0.5]];portConstraint=eastwest;" parent="16" vertex="1"><mxGeometry y="620" width="550" height="20" as="geometry"/></mxCell><mxCell id="615" value="+ FAIRY_NUM_PROPERTIES: int &lt;&lt;static&gt;&gt;" style="text;strokeColor=none;fillColor=none;align=left;verticalAlign=top;spacingLeft=4;spacingRight=4;overflow=hidden;rotatable=0;points=[[0,0.5],[1,0.5]];portConstraint=eastwest;" parent="16" vertex="1"><mxGeometry y="640" width="550" height="20" as="geometry"/></mxCell><mxCell id="612" value="+ TREE_KEY: String &lt;&lt;static&gt;&gt;" style="text;strokeColor=none;fillColor=none;align=left;verticalAlign=top;spacingLeft=4;spacingRight=4;overflow=hidden;rotatable=0;points=[[0,0.5],[1,0.5]];portConstraint=eastwest;" parent="16" vertex="1"><mxGeometry y="660" width="550" height="20" as="geometry"/></mxCell><mxCell id="618" value="+ TREE_ANIMATION_PERIOD: int &lt;&lt;static&gt;&gt;" style="text;strokeColor=none;fillColor=none;align=left;verticalAlign=top;spacingLeft=4;spacingRight=4;overflow=hidden;rotatable=0;points=[[0,0.5],[1,0.5]];portConstraint=eastwest;" parent="16" vertex="1"><mxGeometry y="680" width="550" height="20" as="geometry"/></mxCell><mxCell id="619" value="+ TREE_ACTION_PERIOD: int &lt;&lt;static&gt;&gt;" style="text;strokeColor=none;fillColor=none;align=left;verticalAlign=top;spacingLeft=4;spacingRight=4;overflow=hidden;rotatable=0;points=[[0,0.5],[1,0.5]];portConstraint=eastwest;" parent="16" vertex="1"><mxGeometry y="700" width="550" height="20" as="geometry"/></mxCell><mxCell id="613" value="+ TREE_HEALTH: int &lt;&lt;static&gt;&gt;" style="text;strokeColor=none;fillColor=none;align=left;verticalAlign=top;spacingLeft=4;spacingRight=4;overflow=hidden;rotatable=0;points=[[0,0.5],[1,0.5]];portConstraint=eastwest;" parent="16" vertex="1"><mxGeometry y="720" width="550" height="20" as="geometry"/></mxCell><mxCell id="614" value="+ TREE_NUM_PROPERTIES: int &lt;&lt;static&gt;&gt;" style="text;strokeColor=none;fillColor=none;align=left;verticalAlign=top;spacingLeft=4;spacingRight=4;overflow=hidden;rotatable=0;points=[[0,0.5],[1,0.5]];portConstraint=eastwest;" parent="16" vertex="1"><mxGeometry y="740" width="550" height="20" as="geometry"/></mxCell><mxCell id="620" value="+ TREE_ANIMATION_MAX: double &lt;&lt;static&gt;&gt;" style="text;strokeColor=none;fillColor=none;align=left;verticalAlign=top;spacingLeft=4;spacingRight=4;overflow=hidden;rotatable=0;points=[[0,0.5],[1,0.5]];portConstraint=eastwest;" parent="16" vertex="1"><mxGeometry y="760" width="550" height="20" as="geometry"/></mxCell><mxCell id="621" value="+ TREE_ANIMATION_MIN: double &lt;&lt;static&gt;&gt;" style="text;strokeColor=none;fillColor=none;align=left;verticalAlign=top;spacingLeft=4;spacingRight=4;overflow=hidden;rotatable=0;points=[[0,0.5],[1,0.5]];portConstraint=eastwest;" parent="16" vertex="1"><mxGeometry y="780" width="550" height="20" as="geometry"/></mxCell><mxCell id="622" value="+ TREE_ACTION_MAX: double &lt;&lt;static&gt;&gt;" style="text;strokeColor=none;fillColor=none;align=left;verticalAlign=top;spacingLeft=4;spacingRight=4;overflow=hidden;rotatable=0;points=[[0,0.5],[1,0.5]];portConstraint=eastwest;" parent="16" vertex="1"><mxGeometry y="800" width="550" height="20" as="geometry"/></mxCell><mxCell id="625" value="+ TREE_ACTION_MIN: double &lt;&lt;static&gt;&gt;" style="text;strokeColor=none;fillColor=none;align=left;verticalAlign=top;spacingLeft=4;spacingRight=4;overflow=hidden;rotatable=0;points=[[0,0.5],[1,0.5]];portConstraint=eastwest;" parent="16" vertex="1"><mxGeometry y="820" width="550" height="20" as="geometry"/></mxCell><mxCell id="626" value="+ TREE_HEALTH_MAX: int &lt;&lt;static&gt;&gt;" style="text;strokeColor=none;fillColor=none;align=left;verticalAlign=top;spacingLeft=4;spacingRight=4;overflow=hidden;rotatable=0;points=[[0,0.5],[1,0.5]];portConstraint=eastwest;" parent="16" vertex="1"><mxGeometry y="840" width="550" height="20" as="geometry"/></mxCell><mxCell id="627" value="+ TREE_HEALTH_MIN: int &lt;&lt;static&gt;&gt;" style="text;strokeColor=none;fillColor=none;align=left;verticalAlign=top;spacingLeft=4;spacingRight=4;overflow=hidden;rotatable=0;points=[[0,0.5],[1,0.5]];portConstraint=eastwest;" parent="16" vertex="1"><mxGeometry y="860" width="550" height="20" as="geometry"/></mxCell><mxCell id="18" value="" style="line;strokeWidth=1;fillColor=none;align=left;verticalAlign=middle;spacingTop=-1;spacingLeft=3;spacingRight=3;rotatable=0;labelPosition=right;points=[];portConstraint=eastwest;strokeColor=inherit;" parent="16" vertex="1"><mxGeometry y="880" width="550" height="8" as="geometry"/></mxCell><mxCell id="44" value="+ log(): String" style="text;strokeColor=none;fillColor=none;align=left;verticalAlign=top;spacingLeft=4;spacingRight=4;overflow=hidden;rotatable=0;points=[[0,0.5],[1,0.5]];portConstraint=eastwest;" parent="16" vertex="1"><mxGeometry y="888" width="550" height="22" as="geometry"/></mxCell><mxCell id="450" value="+ getAnimation(Entity): double &lt;&lt;static&gt;&gt;" style="text;strokeColor=none;fillColor=none;align=left;verticalAlign=top;spacingLeft=4;spacingRight=4;overflow=hidden;rotatable=0;points=[[0,0.5],[1,0.5]];portConstraint=eastwest;" parent="16" vertex="1"><mxGeometry y="910" width="550" height="22" as="geometry"/></mxCell><mxCell id="453" value="+ nextImage(Entity): void &lt;&lt;static&gt;&gt;" style="text;strokeColor=none;fillColor=none;align=left;verticalAlign=top;spacingLeft=4;spacingRight=4;overflow=hidden;rotatable=0;points=[[0,0.5],[1,0.5]];portConstraint=eastwest;" parent="16" vertex="1"><mxGeometry y="932" width="550" height="22" as="geometry"/></mxCell><mxCell id="469" value="+ executeSaplingActivity(Entity, WorldModel, ImageStore, EventScheduler): void &lt;&lt;static&gt;&gt;" style="text;strokeColor=none;fillColor=none;align=left;verticalAlign=top;spacingLeft=4;spacingRight=4;overflow=hidden;rotatable=0;points=[[0,0.5],[1,0.5]];portConstraint=eastwest;" parent="16" vertex="1"><mxGeometry y="954" width="550" height="22" as="geometry"/></mxCell><mxCell id="470" value="+ executeTreeActivity(Entity, WorldModel, ImageStore, EventScheduler): void &lt;&lt;static&gt;&gt;" style="text;strokeColor=none;fillColor=none;align=left;verticalAlign=top;spacingLeft=4;spacingRight=4;overflow=hidden;rotatable=0;points=[[0,0.5],[1,0.5]];portConstraint=eastwest;" parent="16" vertex="1"><mxGeometry y="976" width="550" height="22" as="geometry"/></mxCell><mxCell id="471" value="+ executeFairyActitiy(Entity, WorldModel, ImageStore, EventScheduler): void &lt;&lt;static&gt;&gt;" style="text;strokeColor=none;fillColor=none;align=left;verticalAlign=top;spacingLeft=4;spacingRight=4;overflow=hidden;rotatable=0;points=[[0,0.5],[1,0.5]];portConstraint=eastwest;" parent="16" vertex="1"><mxGeometry y="998" width="550" height="22" as="geometry"/></mxCell><mxCell id="472" value="+ executeDudeNotFullActivity(Entity, WorldModel, ImageStore, EventScheduler): void &lt;&lt;static&gt;&gt;" style="text;strokeColor=none;fillColor=none;align=left;verticalAlign=top;spacingLeft=4;spacingRight=4;overflow=hidden;rotatable=0;points=[[0,0.5],[1,0.5]];portConstraint=eastwest;" parent="16" vertex="1"><mxGeometry y="1020" width="550" height="22" as="geometry"/></mxCell><mxCell id="473" value="+ executeDudeFullActivity(Entity, WorldModel, ImageStore, EVentScheduler): void &lt;&lt;static&gt;&gt;" style="text;strokeColor=none;fillColor=none;align=left;verticalAlign=top;spacingLeft=4;spacingRight=4;overflow=hidden;rotatable=0;points=[[0,0.5],[1,0.5]];portConstraint=eastwest;" parent="16" vertex="1"><mxGeometry y="1042" width="550" height="22" as="geometry"/></mxCell><mxCell id="474" value="+ scheduleAction(Entity, EventSchduler, WorldModel, ImageStore): void &lt;&lt;static&gt;&gt;" style="text;strokeColor=none;fillColor=none;align=left;verticalAlign=top;spacingLeft=4;spacingRight=4;overflow=hidden;rotatable=0;points=[[0,0.5],[1,0.5]];portConstraint=eastwest;" parent="16" vertex="1"><mxGeometry y="1064" width="550" height="22" as="geometry"/></mxCell><mxCell id="475" value="+ transformNotFull(Entity, WorldModel, EventScheduler, ImageStore): boolean &lt;&lt;static&gt;&gt;" style="text;strokeColor=none;fillColor=none;align=left;verticalAlign=top;spacingLeft=4;spacingRight=4;overflow=hidden;rotatable=0;points=[[0,0.5],[1,0.5]];portConstraint=eastwest;" parent="16" vertex="1"><mxGeometry y="1086" width="550" height="22" as="geometry"/></mxCell><mxCell id="476" value="+ transformFull(Entitiy, WorldModel, EventScheduler, ImageStore): void &lt;&lt;static&gt;&gt;" style="text;strokeColor=none;fillColor=none;align=left;verticalAlign=top;spacingLeft=4;spacingRight=4;overflow=hidden;rotatable=0;points=[[0,0.5],[1,0.5]];portConstraint=eastwest;" parent="16" vertex="1"><mxGeometry y="1108" width="550" height="22" as="geometry"/></mxCell><mxCell id="477" value="+ transformPlant(Entity, WorldModel, EventScheduler, ImageStore): boolean &lt;&lt;static&gt;&gt;" style="text;strokeColor=none;fillColor=none;align=left;verticalAlign=top;spacingLeft=4;spacingRight=4;overflow=hidden;rotatable=0;points=[[0,0.5],[1,0.5]];portConstraint=eastwest;" parent="16" vertex="1"><mxGeometry y="1130" width="550" height="22" as="geometry"/></mxCell><mxCell id="478" value="+ transformTree(Entity, WorldModel, EventScheduler, ImageStore): boolean &lt;&lt;static&gt;&gt;" style="text;strokeColor=none;fillColor=none;align=left;verticalAlign=top;spacingLeft=4;spacingRight=4;overflow=hidden;rotatable=0;points=[[0,0.5],[1,0.5]];portConstraint=eastwest;" parent="16" vertex="1"><mxGeometry y="1152" width="550" height="22" as="geometry"/></mxCell><mxCell id="479" value="+ transformSapling(Entity, WorldModel, EventScheduler, ImageStore): boolean &lt;&lt;static&gt;&gt;" style="text;strokeColor=none;fillColor=none;align=left;verticalAlign=top;spacingLeft=4;spacingRight=4;overflow=hidden;rotatable=0;points=[[0,0.5],[1,0.5]];portConstraint=eastwest;" parent="16" vertex="1"><mxGeometry y="1174" width="550" height="22" as="geometry"/></mxCell><mxCell id="480" value="+ moveToFairy(Entity, WorldModel, Entity, EventSchuler): boolean &lt;&lt;static&gt;&gt;" style="text;strokeColor=none;fillColor=none;align=left;verticalAlign=top;spacingLeft=4;spacingRight=4;overflow=hidden;rotatable=0;points=[[0,0.5],[1,0.5]];portConstraint=eastwest;" parent="16" vertex="1"><mxGeometry y="1196" width="550" height="22" as="geometry"/></mxCell><mxCell id="482" value="+ moveToNotFull(Entity, WorldModel, Entity, EventSchuler): boolean &lt;&lt;static&gt;&gt;" style="text;strokeColor=none;fillColor=none;align=left;verticalAlign=top;spacingLeft=4;spacingRight=4;overflow=hidden;rotatable=0;points=[[0,0.5],[1,0.5]];portConstraint=eastwest;" parent="16" vertex="1"><mxGeometry y="1218" width="550" height="22" as="geometry"/></mxCell><mxCell id="481" value="+ moveToFull(Entity, WorldModel, Entity, EVentScheduler): boolean &lt;&lt;static&gt;&gt;" style="text;strokeColor=none;fillColor=none;align=left;verticalAlign=top;spacingLeft=4;spacingRight=4;overflow=hidden;rotatable=0;points=[[0,0.5],[1,0.5]];portConstraint=eastwest;" parent="16" vertex="1"><mxGeometry y="1240" width="550" height="22" as="geometry"/></mxCell><mxCell id="483" value="+ movePositionFairy(Entity, WorldModel, Point): Point&lt;&lt;static&gt;&gt;" style="text;strokeColor=none;fillColor=none;align=left;verticalAlign=top;spacingLeft=4;spacingRight=4;overflow=hidden;rotatable=0;points=[[0,0.5],[1,0.5]];portConstraint=eastwest;" parent="16" vertex="1"><mxGeometry y="1262" width="550" height="22" as="geometry"/></mxCell><mxCell id="484" value="+ movePositionDude(Entity, WorldModel, Point): Point&lt;&lt;static&gt;&gt;" style="text;strokeColor=none;fillColor=none;align=left;verticalAlign=top;spacingLeft=4;spacingRight=4;overflow=hidden;rotatable=0;points=[[0,0.5],[1,0.5]];portConstraint=eastwest;" parent="16" vertex="1"><mxGeometry y="1284" width="550" height="22" as="geometry"/></mxCell><mxCell id="486" value="+ adjacent(Point, Point): boolean &lt;&lt;static&gt;&gt;" style="text;strokeColor=none;fillColor=none;align=left;verticalAlign=top;spacingLeft=4;spacingRight=4;overflow=hidden;rotatable=0;points=[[0,0.5],[1,0.5]];portConstraint=eastwest;" parent="16" vertex="1"><mxGeometry y="1306" width="550" height="22" as="geometry"/></mxCell><mxCell id="485" value="+ getIntFromRange(int, int): int &lt;&lt;static&gt;&gt;" style="text;strokeColor=none;fillColor=none;align=left;verticalAlign=top;spacingLeft=4;spacingRight=4;overflow=hidden;rotatable=0;points=[[0,0.5],[1,0.5]];portConstraint=eastwest;" parent="16" vertex="1"><mxGeometry y="1328" width="550" height="22" as="geometry"/></mxCell><mxCell id="487" value="+ getNumFromRange(double, double): double &lt;&lt;static&gt;&gt;" style="text;strokeColor=none;fillColor=none;align=left;verticalAlign=top;spacingLeft=4;spacingRight=4;overflow=hidden;rotatable=0;points=[[0,0.5],[1,0.5]];portConstraint=eastwest;" parent="16" vertex="1"><mxGeometry y="1350" width="550" height="22" as="geometry"/></mxCell><mxCell id="498" value="+ parseSapling(WorldModel, String[], Point, String, ImageStore): void &lt;&lt;static&gt;&gt;" style="text;strokeColor=none;fillColor=none;align=left;verticalAlign=top;spacingLeft=4;spacingRight=4;overflow=hidden;rotatable=0;points=[[0,0.5],[1,0.5]];portConstraint=eastwest;" parent="16" vertex="1"><mxGeometry y="1372" width="550" height="22" as="geometry"/></mxCell><mxCell id="499" value="+ parseDude(WorldModel, String[], Point, String, ImageStore): void &lt;&lt;static&gt;&gt;" style="text;strokeColor=none;fillColor=none;align=left;verticalAlign=top;spacingLeft=4;spacingRight=4;overflow=hidden;rotatable=0;points=[[0,0.5],[1,0.5]];portConstraint=eastwest;" parent="16" vertex="1"><mxGeometry y="1394" width="550" height="22" as="geometry"/></mxCell><mxCell id="500" value="+ parseFairy(WorldModel, String[], Point, String, ImageStore): void &lt;&lt;static&gt;&gt;" style="text;strokeColor=none;fillColor=none;align=left;verticalAlign=top;spacingLeft=4;spacingRight=4;overflow=hidden;rotatable=0;points=[[0,0.5],[1,0.5]];portConstraint=eastwest;" parent="16" vertex="1"><mxGeometry y="1416" width="550" height="22" as="geometry"/></mxCell><mxCell id="501" value="+ parseTree(WorldModel, String[], Point, String, ImageStore): void &lt;&lt;static&gt;&gt;" style="text;strokeColor=none;fillColor=none;align=left;verticalAlign=top;spacingLeft=4;spacingRight=4;overflow=hidden;rotatable=0;points=[[0,0.5],[1,0.5]];portConstraint=eastwest;" parent="16" vertex="1"><mxGeometry y="1438" width="550" height="22" as="geometry"/></mxCell><mxCell id="503" value="+ parseObstacle(WorldModel, String[], Point, String, ImageStore): void &lt;&lt;static&gt;&gt;" style="text;strokeColor=none;fillColor=none;align=left;verticalAlign=top;spacingLeft=4;spacingRight=4;overflow=hidden;rotatable=0;points=[[0,0.5],[1,0.5]];portConstraint=eastwest;" parent="16" vertex="1"><mxGeometry y="1460" width="550" height="22" as="geometry"/></mxCell><mxCell id="504" value="+ parseHouse(WorldModel, String[], Point, String, ImageStore): void &lt;&lt;static&gt;&gt;" style="text;strokeColor=none;fillColor=none;align=left;verticalAlign=top;spacingLeft=4;spacingRight=4;overflow=hidden;rotatable=0;points=[[0,0.5],[1,0.5]];portConstraint=eastwest;" parent="16" vertex="1"><mxGeometry y="1482" width="550" height="22" as="geometry"/></mxCell><mxCell id="505" value="+ parseStump(WorldModel, String[], Point, String, ImageStore): void &lt;&lt;static&gt;&gt;" style="text;strokeColor=none;fillColor=none;align=left;verticalAlign=top;spacingLeft=4;spacingRight=4;overflow=hidden;rotatable=0;points=[[0,0.5],[1,0.5]];portConstraint=eastwest;" parent="16" vertex="1"><mxGeometry y="1504" width="550" height="22" as="geometry"/></mxCell><mxCell id="511" value="+ parseStump(WorldModel, String[], Point, String, ImageStore): void &lt;&lt;static&gt;&gt;" style="text;strokeColor=none;fillColor=none;align=left;verticalAlign=top;spacingLeft=4;spacingRight=4;overflow=hidden;rotatable=0;points=[[0,0.5],[1,0.5]];portConstraint=eastwest;" parent="16" vertex="1"><mxGeometry y="1526" width="550" height="22" as="geometry"/></mxCell><mxCell id="512" value="+ tryAddEntity(WorldModel, Entity): void &lt;&lt;static&gt;&gt;" style="text;strokeColor=none;fillColor=none;align=left;verticalAlign=top;spacingLeft=4;spacingRight=4;overflow=hidden;rotatable=0;points=[[0,0.5],[1,0.5]];portConstraint=eastwest;" parent="16" vertex="1"><mxGeometry y="1548" width="550" height="30" as="geometry"/></mxCell><mxCell id="516" value="+ neareastEntity(List&lt;Entity&gt;, Point): Optional&lt;Entity&gt; &lt;&lt;static&gt;&gt; " style="text;strokeColor=none;fillColor=none;align=left;verticalAlign=top;spacingLeft=4;spacingRight=4;overflow=hidden;rotatable=0;points=[[0,0.5],[1,0.5]];portConstraint=eastwest;" parent="16" vertex="1"><mxGeometry y="1578" width="550" height="30" as="geometry"/></mxCell><mxCell id="528" value="+ findNearest(WorldModel, Point, List&lt;Entitykind&gt;): Optional&lt;Entity&gt; &lt;&lt;static&gt;&gt;" style="text;strokeColor=none;fillColor=none;align=left;verticalAlign=top;spacingLeft=4;spacingRight=4;overflow=hidden;rotatable=0;points=[[0,0.5],[1,0.5]];portConstraint=eastwest;" parent="16" vertex="1"><mxGeometry y="1608" width="550" height="30" as="geometry"/></mxCell><mxCell id="530" value="+ addEntity(WorldModel, Entity): void &lt;&lt;static&gt;&gt;" style="text;strokeColor=none;fillColor=none;align=left;verticalAlign=top;spacingLeft=4;spacingRight=4;overflow=hidden;rotatable=0;points=[[0,0.5],[1,0.5]];portConstraint=eastwest;" parent="16" vertex="1"><mxGeometry y="1638" width="550" height="30" as="geometry"/></mxCell><mxCell id="531" value="+ moveEntity(WorldModel, EventScheduler, Entity, Point): void &lt;&lt;static&gt;&gt;" style="text;strokeColor=none;fillColor=none;align=left;verticalAlign=top;spacingLeft=4;spacingRight=4;overflow=hidden;rotatable=0;points=[[0,0.5],[1,0.5]];portConstraint=eastwest;" parent="16" vertex="1"><mxGeometry y="1668" width="550" height="30" as="geometry"/></mxCell><mxCell id="533" value="+ removeEntity(WorldModel, EventScheduler, Entity): void &lt;&lt;static&gt;&gt;" style="text;strokeColor=none;fillColor=none;align=left;verticalAlign=top;spacingLeft=4;spacingRight=4;overflow=hidden;rotatable=0;points=[[0,0.5],[1,0.5]];portConstraint=eastwest;" parent="16" vertex="1"><mxGeometry y="1698" width="550" height="30" as="geometry"/></mxCell><mxCell id="534" value="+ removeEntityAt(WorldModel, Point): void &lt;&lt;static&gt;&gt;" style="text;strokeColor=none;fillColor=none;align=left;verticalAlign=top;spacingLeft=4;spacingRight=4;overflow=hidden;rotatable=0;points=[[0,0.5],[1,0.5]];portConstraint=eastwest;" parent="16" vertex="1"><mxGeometry y="1728" width="550" height="30" as="geometry"/></mxCell><mxCell id="542" value="+ createHouse(String, Point, List&lt;PImage&gt;: Entity &lt;&lt;static&gt;&gt;" style="text;strokeColor=none;fillColor=none;align=left;verticalAlign=top;spacingLeft=4;spacingRight=4;overflow=hidden;rotatable=0;points=[[0,0.5],[1,0.5]];portConstraint=eastwest;" parent="16" vertex="1"><mxGeometry y="1758" width="550" height="30" as="geometry"/></mxCell><mxCell id="543" value="+ createObstacle(String, Point, double, List&lt;PImage&gt;): Entity &lt;&lt;static&gt;&gt;" style="text;strokeColor=none;fillColor=none;align=left;verticalAlign=top;spacingLeft=4;spacingRight=4;overflow=hidden;rotatable=0;points=[[0,0.5],[1,0.5]];portConstraint=eastwest;" parent="16" vertex="1"><mxGeometry y="1788" width="550" height="30" as="geometry"/></mxCell><mxCell id="544" value="+ createTree(String, Point, double, double, int, List&lt;PImage&gt;): Entity &lt;&lt;static&gt;&gt;" style="text;strokeColor=none;fillColor=none;align=left;verticalAlign=top;spacingLeft=4;spacingRight=4;overflow=hidden;rotatable=0;points=[[0,0.5],[1,0.5]];portConstraint=eastwest;" parent="16" vertex="1"><mxGeometry y="1818" width="550" height="30" as="geometry"/></mxCell><mxCell id="545" value="+ createStump(String, Point, List&lt;PImage&gt;): Entity &lt;&lt;static&gt;&gt;" style="text;strokeColor=none;fillColor=none;align=left;verticalAlign=top;spacingLeft=4;spacingRight=4;overflow=hidden;rotatable=0;points=[[0,0.5],[1,0.5]];portConstraint=eastwest;" parent="16" vertex="1"><mxGeometry y="1848" width="550" height="30" as="geometry"/></mxCell><mxCell id="546" value="+ createSapling(String, Point, List&lt;PImage&gt;, int): Entity &lt;&lt;static&gt;&gt;" style="text;strokeColor=none;fillColor=none;align=left;verticalAlign=top;spacingLeft=4;spacingRight=4;overflow=hidden;rotatable=0;points=[[0,0.5],[1,0.5]];portConstraint=eastwest;" parent="16" vertex="1"><mxGeometry y="1878" width="550" height="30" as="geometry"/></mxCell><mxCell id="547" value="+ createFairy(String, Point, double, double, List&lt;PImage&gt;, int): Entity &lt;&lt;static&gt;&gt;" style="text;strokeColor=none;fillColor=none;align=left;verticalAlign=top;spacingLeft=4;spacingRight=4;overflow=hidden;rotatable=0;points=[[0,0.5],[1,0.5]];portConstraint=eastwest;" parent="16" vertex="1"><mxGeometry y="1908" width="550" height="30" as="geometry"/></mxCell><mxCell id="548" value="+ createDudeNotFull(String, Point, double, double, int, List&lt;PImage&gt;, int): Entity &lt;&lt;static&gt;&gt;" style="text;strokeColor=none;fillColor=none;align=left;verticalAlign=top;spacingLeft=4;spacingRight=4;overflow=hidden;rotatable=0;points=[[0,0.5],[1,0.5]];portConstraint=eastwest;" parent="16" vertex="1"><mxGeometry y="1938" width="550" height="30" as="geometry"/></mxCell><mxCell id="549" value="+ createDudeFull(String, Point, double, double, int, List&lt;PImage&gt;, int): Entity &lt;&lt;static&gt;&gt;" style="text;strokeColor=none;fillColor=none;align=left;verticalAlign=top;spacingLeft=4;spacingRight=4;overflow=hidden;rotatable=0;points=[[0,0.5],[1,0.5]];portConstraint=eastwest;" parent="16" vertex="1"><mxGeometry y="1968" width="550" height="30" as="geometry"/></mxCell><mxCell id="578" value="+ getImageList(ImageStore, String): List&lt;PImage&gt; &lt;&lt;static&gt;&gt;" style="text;strokeColor=none;fillColor=none;align=left;verticalAlign=top;spacingLeft=4;spacingRight=4;overflow=hidden;rotatable=0;points=[[0,0.5],[1,0.5]];portConstraint=eastwest;" parent="16" vertex="1"><mxGeometry y="1998" width="550" height="30" as="geometry"/></mxCell><mxCell id="801" style="edgeStyle=orthogonalEdgeStyle;rounded=0;orthogonalLoop=1;jettySize=auto;html=1;exitX=0.5;exitY=0;exitDx=0;exitDy=0;entryX=0;entryY=0.5;entryDx=0;entryDy=0;" parent="1" source="51" target="34" edge="1"><mxGeometry relative="1" as="geometry"/></mxCell><mxCell id="51" value="Event" style="swimlane;fontStyle=1;align=center;verticalAlign=top;childLayout=stackLayout;horizontal=1;startSize=26;horizontalStack=0;resizeParent=1;resizeParentMax=0;resizeLast=0;collapsible=1;marginBottom=0;" parent="1" vertex="1"><mxGeometry x="-1650" y="750" width="160" height="112" as="geometry"><mxRectangle x="80" y="557" width="120" height="30" as="alternateBounds"/></mxGeometry></mxCell><mxCell id="52" value="+ action: Actiom" style="text;strokeColor=none;fillColor=none;align=left;verticalAlign=top;spacingLeft=4;spacingRight=4;overflow=hidden;rotatable=0;points=[[0,0.5],[1,0.5]];portConstraint=eastwest;" parent="51" vertex="1"><mxGeometry y="26" width="160" height="26" as="geometry"/></mxCell><mxCell id="55" value="+ entity: Entity" style="text;strokeColor=none;fillColor=none;align=left;verticalAlign=top;spacingLeft=4;spacingRight=4;overflow=hidden;rotatable=0;points=[[0,0.5],[1,0.5]];portConstraint=eastwest;" parent="51" vertex="1"><mxGeometry y="52" width="160" height="26" as="geometry"/></mxCell><mxCell id="56" value="+ time: double" style="text;strokeColor=none;fillColor=none;align=left;verticalAlign=top;spacingLeft=4;spacingRight=4;overflow=hidden;rotatable=0;points=[[0,0.5],[1,0.5]];portConstraint=eastwest;" parent="51" vertex="1"><mxGeometry y="78" width="160" height="26" as="geometry"/></mxCell><mxCell id="53" value="" style="line;strokeWidth=1;fillColor=none;align=left;verticalAlign=middle;spacingTop=-1;spacingLeft=3;spacingRight=3;rotatable=0;labelPosition=right;points=[];portConstraint=eastwest;strokeColor=inherit;" parent="51" vertex="1"><mxGeometry y="104" width="160" height="8" as="geometry"/></mxCell><mxCell id="802" style="edgeStyle=orthogonalEdgeStyle;rounded=0;orthogonalLoop=1;jettySize=auto;html=1;exitX=0.5;exitY=0;exitDx=0;exitDy=0;entryX=0;entryY=0.5;entryDx=0;entryDy=0;" parent="1" source="308" target="597" edge="1"><mxGeometry relative="1" as="geometry"/></mxCell><mxCell id="308" value="EventComparator" style="swimlane;fontStyle=1;align=center;verticalAlign=top;childLayout=stackLayout;horizontal=1;startSize=26;horizontalStack=0;resizeParent=1;resizeParentMax=0;resizeLast=0;collapsible=1;marginBottom=0;" parent="1" vertex="1"><mxGeometry x="-1690" y="970" width="190" height="60" as="geometry"><mxRectangle x="170" y="480" width="140" height="30" as="alternateBounds"/></mxGeometry></mxCell><mxCell id="310" value="" style="line;strokeWidth=1;fillColor=none;align=left;verticalAlign=middle;spacingTop=-1;spacingLeft=3;spacingRight=3;rotatable=0;labelPosition=right;points=[];portConstraint=eastwest;strokeColor=inherit;" parent="308" vertex="1"><mxGeometry y="26" width="190" height="8" as="geometry"/></mxCell><mxCell id="311" value="+ compare(Event, Event): int " style="text;strokeColor=none;fillColor=none;align=left;verticalAlign=top;spacingLeft=4;spacingRight=4;overflow=hidden;rotatable=0;points=[[0,0.5],[1,0.5]];portConstraint=eastwest;" parent="308" vertex="1"><mxGeometry y="34" width="190" height="26" as="geometry"/></mxCell><mxCell id="816" style="edgeStyle=orthogonalEdgeStyle;rounded=0;orthogonalLoop=1;jettySize=auto;html=1;exitX=0.5;exitY=0;exitDx=0;exitDy=0;entryX=0.5;entryY=0;entryDx=0;entryDy=0;" parent="1" source="69" target="16" edge="1"><mxGeometry relative="1" as="geometry"/></mxCell><mxCell id="69" value="Functions" style="swimlane;fontStyle=1;align=center;verticalAlign=top;childLayout=stackLayout;horizontal=1;startSize=26;horizontalStack=0;resizeParent=1;resizeParentMax=0;resizeLast=0;collapsible=1;marginBottom=0;" parent="1" vertex="1" collapsed="1"><mxGeometry x="880" y="350" width="100" height="30" as="geometry"><mxRectangle x="920" y="160" width="500" height="3408" as="alternateBounds"/></mxGeometry></mxCell><mxCell id="70" value="+ rand: Random &lt;&lt;static&gt;&gt;" style="text;strokeColor=none;fillColor=none;align=left;verticalAlign=top;spacingLeft=4;spacingRight=4;overflow=hidden;rotatable=0;points=[[0,0.5],[1,0.5]];portConstraint=eastwest;" parent="69" vertex="1"><mxGeometry y="26" width="500" height="26" as="geometry"/></mxCell><mxCell id="73" value="+ COLOR_MASK: int &lt;&lt;static&gt;&gt;" style="text;strokeColor=none;fillColor=none;align=left;verticalAlign=top;spacingLeft=4;spacingRight=4;overflow=hidden;rotatable=0;points=[[0,0.5],[1,0.5]];portConstraint=eastwest;" parent="69" vertex="1"><mxGeometry y="52" width="500" height="26" as="geometry"/></mxCell><mxCell id="77" value="+ KEYED_IMAGE_MIN: int &lt;&lt;static&gt;&gt;" style="text;strokeColor=none;fillColor=none;align=left;verticalAlign=top;spacingLeft=4;spacingRight=4;overflow=hidden;rotatable=0;points=[[0,0.5],[1,0.5]];portConstraint=eastwest;" parent="69" vertex="1"><mxGeometry y="78" width="500" height="26" as="geometry"/></mxCell><mxCell id="75" value="-  KEYED_RED_IDX: int &lt;&lt;static&gt;&gt;" style="text;strokeColor=none;fillColor=none;align=left;verticalAlign=top;spacingLeft=4;spacingRight=4;overflow=hidden;rotatable=0;points=[[0,0.5],[1,0.5]];portConstraint=eastwest;" parent="69" vertex="1"><mxGeometry y="104" width="500" height="26" as="geometry"/></mxCell><mxCell id="76" value="- KEYED_GREEN_IDX: int &lt;&lt;static&gt;&gt;" style="text;strokeColor=none;fillColor=none;align=left;verticalAlign=top;spacingLeft=4;spacingRight=4;overflow=hidden;rotatable=0;points=[[0,0.5],[1,0.5]];portConstraint=eastwest;" parent="69" vertex="1"><mxGeometry y="130" width="500" height="26" as="geometry"/></mxCell><mxCell id="78" value="- KEYED_BLUE_IDX: int  &lt;&lt;static&gt;&gt;" style="text;strokeColor=none;fillColor=none;align=left;verticalAlign=top;spacingLeft=4;spacingRight=4;overflow=hidden;rotatable=0;points=[[0,0.5],[1,0.5]];portConstraint=eastwest;" parent="69" vertex="1"><mxGeometry y="156" width="500" height="26" as="geometry"/></mxCell><mxCell id="79" value="+ PATH_KEYS: List&lt;String&gt; &lt;&lt;static&gt;&gt;" style="text;strokeColor=none;fillColor=none;align=left;verticalAlign=top;spacingLeft=4;spacingRight=4;overflow=hidden;rotatable=0;points=[[0,0.5],[1,0.5]];portConstraint=eastwest;" parent="69" vertex="1"><mxGeometry y="182" width="500" height="26" as="geometry"/></mxCell><mxCell id="80" value="+ SAPLING_ACTION_ANIMATION_PERIOD: double &lt;&lt;static&gt;&gt;" style="text;strokeColor=none;fillColor=none;align=left;verticalAlign=top;spacingLeft=4;spacingRight=4;overflow=hidden;rotatable=0;points=[[0,0.5],[1,0.5]];portConstraint=eastwest;" parent="69" vertex="1"><mxGeometry y="208" width="500" height="26" as="geometry"/></mxCell><mxCell id="81" value="+ SAPLING_HEALTH_LIMIT = int &lt;&lt;static&gt;&gt;" style="text;strokeColor=none;fillColor=none;align=left;verticalAlign=top;spacingLeft=4;spacingRight=4;overflow=hidden;rotatable=0;points=[[0,0.5],[1,0.5]];portConstraint=eastwest;" parent="69" vertex="1"><mxGeometry y="234" width="500" height="26" as="geometry"/></mxCell><mxCell id="82" value="+ PROPERTY_KEY: int &lt;&lt;static&gt;&gt;" style="text;strokeColor=none;fillColor=none;align=left;verticalAlign=top;spacingLeft=4;spacingRight=4;overflow=hidden;rotatable=0;points=[[0,0.5],[1,0.5]];portConstraint=eastwest;" parent="69" vertex="1"><mxGeometry y="260" width="500" height="26" as="geometry"/></mxCell><mxCell id="83" value="+ PROPERTY_ID: int &lt;&lt;static&gt;&gt;" style="text;strokeColor=none;fillColor=none;align=left;verticalAlign=top;spacingLeft=4;spacingRight=4;overflow=hidden;rotatable=0;points=[[0,0.5],[1,0.5]];portConstraint=eastwest;" parent="69" vertex="1"><mxGeometry y="286" width="500" height="26" as="geometry"/></mxCell><mxCell id="84" value="+ PROPERTY_COL: int &lt;&lt;static&gt;&gt;" style="text;strokeColor=none;fillColor=none;align=left;verticalAlign=top;spacingLeft=4;spacingRight=4;overflow=hidden;rotatable=0;points=[[0,0.5],[1,0.5]];portConstraint=eastwest;" parent="69" vertex="1"><mxGeometry y="312" width="500" height="26" as="geometry"/></mxCell><mxCell id="86" value="+ PROPERTY_ROW: int &lt;&lt;static&gt;&gt;" style="text;strokeColor=none;fillColor=none;align=left;verticalAlign=top;spacingLeft=4;spacingRight=4;overflow=hidden;rotatable=0;points=[[0,0.5],[1,0.5]];portConstraint=eastwest;" parent="69" vertex="1"><mxGeometry y="338" width="500" height="26" as="geometry"/></mxCell><mxCell id="87" value="+ ENTITY_NUM_PROPERTIES: int &lt;&lt;static&gt;&gt;" style="text;strokeColor=none;fillColor=none;align=left;verticalAlign=top;spacingLeft=4;spacingRight=4;overflow=hidden;rotatable=0;points=[[0,0.5],[1,0.5]];portConstraint=eastwest;" parent="69" vertex="1"><mxGeometry y="364" width="500" height="26" as="geometry"/></mxCell><mxCell id="88" value="+ STUMP_KEY: int &lt;&lt;static&gt;&gt;" style="text;strokeColor=none;fillColor=none;align=left;verticalAlign=top;spacingLeft=4;spacingRight=4;overflow=hidden;rotatable=0;points=[[0,0.5],[1,0.5]];portConstraint=eastwest;" parent="69" vertex="1"><mxGeometry y="390" width="500" height="26" as="geometry"/></mxCell><mxCell id="89" value="+ STUMP_NUM_PROPERTIES: int &lt;&lt;static&gt;&gt;" style="text;strokeColor=none;fillColor=none;align=left;verticalAlign=top;spacingLeft=4;spacingRight=4;overflow=hidden;rotatable=0;points=[[0,0.5],[1,0.5]];portConstraint=eastwest;" parent="69" vertex="1"><mxGeometry y="416" width="500" height="26" as="geometry"/></mxCell><mxCell id="90" value="+ SAPLING_KEY: int &lt;&lt;static&gt;&gt;" style="text;strokeColor=none;fillColor=none;align=left;verticalAlign=top;spacingLeft=4;spacingRight=4;overflow=hidden;rotatable=0;points=[[0,0.5],[1,0.5]];portConstraint=eastwest;" parent="69" vertex="1"><mxGeometry y="442" width="500" height="26" as="geometry"/></mxCell><mxCell id="94" value="+ SAPLING_HEALTH: int &lt;&lt;static&gt;&gt;" style="text;strokeColor=none;fillColor=none;align=left;verticalAlign=top;spacingLeft=4;spacingRight=4;overflow=hidden;rotatable=0;points=[[0,0.5],[1,0.5]];portConstraint=eastwest;" parent="69" vertex="1"><mxGeometry y="468" width="500" height="26" as="geometry"/></mxCell><mxCell id="96" value="+ SAPLING_NUM_PROPERTIES: int &lt;&lt;static&gt;&gt;" style="text;strokeColor=none;fillColor=none;align=left;verticalAlign=top;spacingLeft=4;spacingRight=4;overflow=hidden;rotatable=0;points=[[0,0.5],[1,0.5]];portConstraint=eastwest;" parent="69" vertex="1"><mxGeometry y="494" width="500" height="26" as="geometry"/></mxCell><mxCell id="97" value="+ OBSTACLE_KEY: String &lt;&lt;static&gt;&gt;" style="text;strokeColor=none;fillColor=none;align=left;verticalAlign=top;spacingLeft=4;spacingRight=4;overflow=hidden;rotatable=0;points=[[0,0.5],[1,0.5]];portConstraint=eastwest;" parent="69" vertex="1"><mxGeometry y="520" width="500" height="26" as="geometry"/></mxCell><mxCell id="98" value="+ OBSTACLE_ANIMATION_PERIOD: int &lt;&lt;static&gt;&gt;" style="text;strokeColor=none;fillColor=none;align=left;verticalAlign=top;spacingLeft=4;spacingRight=4;overflow=hidden;rotatable=0;points=[[0,0.5],[1,0.5]];portConstraint=eastwest;" parent="69" vertex="1"><mxGeometry y="546" width="500" height="26" as="geometry"/></mxCell><mxCell id="99" value="+ OBSTACLE_NUM_PROPERTIES: int &lt;&lt;static&gt;&gt;" style="text;strokeColor=none;fillColor=none;align=left;verticalAlign=top;spacingLeft=4;spacingRight=4;overflow=hidden;rotatable=0;points=[[0,0.5],[1,0.5]];portConstraint=eastwest;" parent="69" vertex="1"><mxGeometry y="572" width="500" height="26" as="geometry"/></mxCell><mxCell id="95" value="+ DUDE_KEY: int &lt;&lt;static&gt;&gt;" style="text;strokeColor=none;fillColor=none;align=left;verticalAlign=top;spacingLeft=4;spacingRight=4;overflow=hidden;rotatable=0;points=[[0,0.5],[1,0.5]];portConstraint=eastwest;" parent="69" vertex="1"><mxGeometry y="598" width="500" height="26" as="geometry"/></mxCell><mxCell id="100" value="+ DUDE_ACTION_PERIOD: int &lt;&lt;static&gt;&gt;" style="text;strokeColor=none;fillColor=none;align=left;verticalAlign=top;spacingLeft=4;spacingRight=4;overflow=hidden;rotatable=0;points=[[0,0.5],[1,0.5]];portConstraint=eastwest;" parent="69" vertex="1"><mxGeometry y="624" width="500" height="26" as="geometry"/></mxCell><mxCell id="101" value="+ DUDE_ANIMATION_PERIOD: int  &lt;&lt;static&gt;&gt;" style="text;strokeColor=none;fillColor=none;align=left;verticalAlign=top;spacingLeft=4;spacingRight=4;overflow=hidden;rotatable=0;points=[[0,0.5],[1,0.5]];portConstraint=eastwest;" parent="69" vertex="1"><mxGeometry y="650" width="500" height="26" as="geometry"/></mxCell><mxCell id="102" value="+ DUDE_LIMIT: int &lt;&lt;static&gt;&gt;" style="text;strokeColor=none;fillColor=none;align=left;verticalAlign=top;spacingLeft=4;spacingRight=4;overflow=hidden;rotatable=0;points=[[0,0.5],[1,0.5]];portConstraint=eastwest;" parent="69" vertex="1"><mxGeometry y="676" width="500" height="26" as="geometry"/></mxCell><mxCell id="103" value="+ DUDE_NUM_PROPERTIES: int &lt;&lt;static&gt;&gt;" style="text;strokeColor=none;fillColor=none;align=left;verticalAlign=top;spacingLeft=4;spacingRight=4;overflow=hidden;rotatable=0;points=[[0,0.5],[1,0.5]];portConstraint=eastwest;" parent="69" vertex="1"><mxGeometry y="702" width="500" height="26" as="geometry"/></mxCell><mxCell id="104" value="+ HOUSE_KEY: String &lt;&lt;static&gt;&gt;" style="text;strokeColor=none;fillColor=none;align=left;verticalAlign=top;spacingLeft=4;spacingRight=4;overflow=hidden;rotatable=0;points=[[0,0.5],[1,0.5]];portConstraint=eastwest;" parent="69" vertex="1"><mxGeometry y="728" width="500" height="26" as="geometry"/></mxCell><mxCell id="105" value="+ HOUSE_NUM_PROPERTIES: int &lt;&lt;static&gt;&gt;" style="text;strokeColor=none;fillColor=none;align=left;verticalAlign=top;spacingLeft=4;spacingRight=4;overflow=hidden;rotatable=0;points=[[0,0.5],[1,0.5]];portConstraint=eastwest;" parent="69" vertex="1"><mxGeometry y="754" width="500" height="26" as="geometry"/></mxCell><mxCell id="106" value="+ FAIRY_KEY: String &lt;&lt;static&gt;&gt;" style="text;strokeColor=none;fillColor=none;align=left;verticalAlign=top;spacingLeft=4;spacingRight=4;overflow=hidden;rotatable=0;points=[[0,0.5],[1,0.5]];portConstraint=eastwest;" parent="69" vertex="1"><mxGeometry y="780" width="500" height="26" as="geometry"/></mxCell><mxCell id="107" value="+ FAIRY_ANIMATION_PERIOD: int &lt;&lt;static&gt;&gt;" style="text;strokeColor=none;fillColor=none;align=left;verticalAlign=top;spacingLeft=4;spacingRight=4;overflow=hidden;rotatable=0;points=[[0,0.5],[1,0.5]];portConstraint=eastwest;" parent="69" vertex="1"><mxGeometry y="806" width="500" height="26" as="geometry"/></mxCell><mxCell id="108" value="+ FAIRY_ACTION_PERIOD: int &lt;&lt;static&gt;&gt;" style="text;strokeColor=none;fillColor=none;align=left;verticalAlign=top;spacingLeft=4;spacingRight=4;overflow=hidden;rotatable=0;points=[[0,0.5],[1,0.5]];portConstraint=eastwest;" parent="69" vertex="1"><mxGeometry y="832" width="500" height="26" as="geometry"/></mxCell><mxCell id="122" value="+ FAIRY_NUM_PROPERTIES: int &lt;&lt;static&gt;&gt;" style="text;strokeColor=none;fillColor=none;align=left;verticalAlign=top;spacingLeft=4;spacingRight=4;overflow=hidden;rotatable=0;points=[[0,0.5],[1,0.5]];portConstraint=eastwest;" parent="69" vertex="1"><mxGeometry y="858" width="500" height="26" as="geometry"/></mxCell><mxCell id="110" value="+ TREE_KEY: String &lt;&lt;static&gt;&gt;" style="text;strokeColor=none;fillColor=none;align=left;verticalAlign=top;spacingLeft=4;spacingRight=4;overflow=hidden;rotatable=0;points=[[0,0.5],[1,0.5]];portConstraint=eastwest;" parent="69" vertex="1"><mxGeometry y="884" width="500" height="26" as="geometry"/></mxCell><mxCell id="113" value="+ TREE_ANIMATION_PERIOD: int &lt;&lt;static&gt;&gt;" style="text;strokeColor=none;fillColor=none;align=left;verticalAlign=top;spacingLeft=4;spacingRight=4;overflow=hidden;rotatable=0;points=[[0,0.5],[1,0.5]];portConstraint=eastwest;" parent="69" vertex="1"><mxGeometry y="910" width="500" height="26" as="geometry"/></mxCell><mxCell id="112" value="+ TREE_ACTION_PERIOD: int &lt;&lt;static&gt;&gt;" style="text;strokeColor=none;fillColor=none;align=left;verticalAlign=top;spacingLeft=4;spacingRight=4;overflow=hidden;rotatable=0;points=[[0,0.5],[1,0.5]];portConstraint=eastwest;" parent="69" vertex="1"><mxGeometry y="936" width="500" height="26" as="geometry"/></mxCell><mxCell id="114" value="+ TREE_HEALTH: int &lt;&lt;static&gt;&gt;" style="text;strokeColor=none;fillColor=none;align=left;verticalAlign=top;spacingLeft=4;spacingRight=4;overflow=hidden;rotatable=0;points=[[0,0.5],[1,0.5]];portConstraint=eastwest;" parent="69" vertex="1"><mxGeometry y="962" width="500" height="26" as="geometry"/></mxCell><mxCell id="115" value="+ TREE_NUM_PROPERTIES: int &lt;&lt;static&gt;&gt;" style="text;strokeColor=none;fillColor=none;align=left;verticalAlign=top;spacingLeft=4;spacingRight=4;overflow=hidden;rotatable=0;points=[[0,0.5],[1,0.5]];portConstraint=eastwest;" parent="69" vertex="1"><mxGeometry y="988" width="500" height="26" as="geometry"/></mxCell><mxCell id="116" value="+ TREE_ANIMATION_MAX: double &lt;&lt;static&gt;&gt;" style="text;strokeColor=none;fillColor=none;align=left;verticalAlign=top;spacingLeft=4;spacingRight=4;overflow=hidden;rotatable=0;points=[[0,0.5],[1,0.5]];portConstraint=eastwest;" parent="69" vertex="1"><mxGeometry y="1014" width="500" height="26" as="geometry"/></mxCell><mxCell id="117" value="+ TREE_ANIMATION_MIN: double &lt;&lt;static&gt;&gt;" style="text;strokeColor=none;fillColor=none;align=left;verticalAlign=top;spacingLeft=4;spacingRight=4;overflow=hidden;rotatable=0;points=[[0,0.5],[1,0.5]];portConstraint=eastwest;" parent="69" vertex="1"><mxGeometry y="1040" width="500" height="26" as="geometry"/></mxCell><mxCell id="118" value="+ TREE_ACTION_MAX: double &lt;&lt;static&gt;&gt;" style="text;strokeColor=none;fillColor=none;align=left;verticalAlign=top;spacingLeft=4;spacingRight=4;overflow=hidden;rotatable=0;points=[[0,0.5],[1,0.5]];portConstraint=eastwest;" parent="69" vertex="1"><mxGeometry y="1066" width="500" height="26" as="geometry"/></mxCell><mxCell id="119" value="+ TREE_ACTION_MIN: double &lt;&lt;static&gt;&gt;" style="text;strokeColor=none;fillColor=none;align=left;verticalAlign=top;spacingLeft=4;spacingRight=4;overflow=hidden;rotatable=0;points=[[0,0.5],[1,0.5]];portConstraint=eastwest;" parent="69" vertex="1"><mxGeometry y="1092" width="500" height="26" as="geometry"/></mxCell><mxCell id="120" value="+ TREE_HEALTH_MAX: int &lt;&lt;static&gt;&gt;" style="text;strokeColor=none;fillColor=none;align=left;verticalAlign=top;spacingLeft=4;spacingRight=4;overflow=hidden;rotatable=0;points=[[0,0.5],[1,0.5]];portConstraint=eastwest;" parent="69" vertex="1"><mxGeometry y="1118" width="500" height="26" as="geometry"/></mxCell><mxCell id="121" value="+ TREE_HEALTH_MIN: int &lt;&lt;static&gt;&gt;" style="text;strokeColor=none;fillColor=none;align=left;verticalAlign=top;spacingLeft=4;spacingRight=4;overflow=hidden;rotatable=0;points=[[0,0.5],[1,0.5]];portConstraint=eastwest;" parent="69" vertex="1"><mxGeometry y="1144" width="500" height="26" as="geometry"/></mxCell><mxCell id="71" value="" style="line;strokeWidth=1;fillColor=none;align=left;verticalAlign=middle;spacingTop=-1;spacingLeft=3;spacingRight=3;rotatable=0;labelPosition=right;points=[];portConstraint=eastwest;strokeColor=inherit;" parent="69" vertex="1"><mxGeometry y="1170" width="500" height="8" as="geometry"/></mxCell><mxCell id="628" value="+ getAnimation(Entity): double &lt;&lt;static&gt;&gt;" style="text;strokeColor=none;fillColor=none;align=left;verticalAlign=top;spacingLeft=4;spacingRight=4;overflow=hidden;rotatable=0;points=[[0,0.5],[1,0.5]];portConstraint=eastwest;" parent="69" vertex="1"><mxGeometry y="1178" width="500" height="22" as="geometry"/></mxCell><mxCell id="629" value="+ nextImage(Entity): void &lt;&lt;static&gt;&gt;" style="text;strokeColor=none;fillColor=none;align=left;verticalAlign=top;spacingLeft=4;spacingRight=4;overflow=hidden;rotatable=0;points=[[0,0.5],[1,0.5]];portConstraint=eastwest;" parent="69" vertex="1"><mxGeometry y="1200" width="500" height="22" as="geometry"/></mxCell><mxCell id="630" value="+ executeAction(Action, EventScheduler): void &lt;&lt;static&gt;&gt;" style="text;strokeColor=none;fillColor=none;align=left;verticalAlign=top;spacingLeft=4;spacingRight=4;overflow=hidden;rotatable=0;points=[[0,0.5],[1,0.5]];portConstraint=eastwest;" parent="69" vertex="1"><mxGeometry y="1222" width="500" height="28" as="geometry"/></mxCell><mxCell id="631" value="+ executeAnimationAction(Action, EventScheduler): void &lt;&lt;static&gt;&gt;" style="text;strokeColor=none;fillColor=none;align=left;verticalAlign=top;spacingLeft=4;spacingRight=4;overflow=hidden;rotatable=0;points=[[0,0.5],[1,0.5]];portConstraint=eastwest;" parent="69" vertex="1"><mxGeometry y="1250" width="500" height="30" as="geometry"/></mxCell><mxCell id="632" value="+ executeActivityAction(ACtiona EventScheduler): void &lt;&lt;static&gt;&gt;" style="text;strokeColor=none;fillColor=none;align=left;verticalAlign=top;spacingLeft=4;spacingRight=4;overflow=hidden;rotatable=0;points=[[0,0.5],[1,0.5]];portConstraint=eastwest;" parent="69" vertex="1"><mxGeometry y="1280" width="500" height="30" as="geometry"/></mxCell><mxCell id="633" value="+ executeSaplingActivity(Entity, WorldModel, ImageStore, EventScheduler): void &lt;&lt;static&gt;&gt;" style="text;strokeColor=none;fillColor=none;align=left;verticalAlign=top;spacingLeft=4;spacingRight=4;overflow=hidden;rotatable=0;points=[[0,0.5],[1,0.5]];portConstraint=eastwest;" parent="69" vertex="1"><mxGeometry y="1310" width="500" height="22" as="geometry"/></mxCell><mxCell id="634" value="+ executeTreeActivity(Entity, WorldModel, ImageStore, EventScheduler): void &lt;&lt;static&gt;&gt;" style="text;strokeColor=none;fillColor=none;align=left;verticalAlign=top;spacingLeft=4;spacingRight=4;overflow=hidden;rotatable=0;points=[[0,0.5],[1,0.5]];portConstraint=eastwest;" parent="69" vertex="1"><mxGeometry y="1332" width="500" height="22" as="geometry"/></mxCell><mxCell id="635" value="+ executeFairyActitiy(Entity, WorldModel, ImageStore, EventScheduler): void &lt;&lt;static&gt;&gt;" style="text;strokeColor=none;fillColor=none;align=left;verticalAlign=top;spacingLeft=4;spacingRight=4;overflow=hidden;rotatable=0;points=[[0,0.5],[1,0.5]];portConstraint=eastwest;" parent="69" vertex="1"><mxGeometry y="1354" width="500" height="22" as="geometry"/></mxCell><mxCell id="636" value="+ executeDudeNotFullActivity(Entity, WorldModel, ImageStore, EventScheduler): void &lt;&lt;static&gt;&gt;" style="text;strokeColor=none;fillColor=none;align=left;verticalAlign=top;spacingLeft=4;spacingRight=4;overflow=hidden;rotatable=0;points=[[0,0.5],[1,0.5]];portConstraint=eastwest;" parent="69" vertex="1"><mxGeometry y="1376" width="500" height="22" as="geometry"/></mxCell><mxCell id="637" value="+ executeDudeFullActivity(Entity, WorldModel, ImageStore, EVentScheduler): void &lt;&lt;static&gt;&gt;" style="text;strokeColor=none;fillColor=none;align=left;verticalAlign=top;spacingLeft=4;spacingRight=4;overflow=hidden;rotatable=0;points=[[0,0.5],[1,0.5]];portConstraint=eastwest;" parent="69" vertex="1"><mxGeometry y="1398" width="500" height="22" as="geometry"/></mxCell><mxCell id="638" value="+ scheduleAction(Entity, EventSchduler, WorldModel, ImageStore): void &lt;&lt;static&gt;&gt;" style="text;strokeColor=none;fillColor=none;align=left;verticalAlign=top;spacingLeft=4;spacingRight=4;overflow=hidden;rotatable=0;points=[[0,0.5],[1,0.5]];portConstraint=eastwest;" parent="69" vertex="1"><mxGeometry y="1420" width="500" height="22" as="geometry"/></mxCell><mxCell id="639" value="+ transformNotFull(Entity, WorldModel, EventScheduler, ImageStore): boolean &lt;&lt;static&gt;&gt;" style="text;strokeColor=none;fillColor=none;align=left;verticalAlign=top;spacingLeft=4;spacingRight=4;overflow=hidden;rotatable=0;points=[[0,0.5],[1,0.5]];portConstraint=eastwest;" parent="69" vertex="1"><mxGeometry y="1442" width="500" height="22" as="geometry"/></mxCell><mxCell id="640" value="+ transformFull(Entitiy, WorldModel, EventScheduler, ImageStore): void &lt;&lt;static&gt;&gt;" style="text;strokeColor=none;fillColor=none;align=left;verticalAlign=top;spacingLeft=4;spacingRight=4;overflow=hidden;rotatable=0;points=[[0,0.5],[1,0.5]];portConstraint=eastwest;" parent="69" vertex="1"><mxGeometry y="1464" width="500" height="22" as="geometry"/></mxCell><mxCell id="641" value="+ transformPlant(Entity, WorldModel, EventScheduler, ImageStore): boolean &lt;&lt;static&gt;&gt;" style="text;strokeColor=none;fillColor=none;align=left;verticalAlign=top;spacingLeft=4;spacingRight=4;overflow=hidden;rotatable=0;points=[[0,0.5],[1,0.5]];portConstraint=eastwest;" parent="69" vertex="1"><mxGeometry y="1486" width="500" height="22" as="geometry"/></mxCell><mxCell id="642" value="+ transformTree(Entity, WorldModel, EventScheduler, ImageStore): boolean &lt;&lt;static&gt;&gt;" style="text;strokeColor=none;fillColor=none;align=left;verticalAlign=top;spacingLeft=4;spacingRight=4;overflow=hidden;rotatable=0;points=[[0,0.5],[1,0.5]];portConstraint=eastwest;" parent="69" vertex="1"><mxGeometry y="1508" width="500" height="22" as="geometry"/></mxCell><mxCell id="643" value="+ transformSapling(Entity, WorldModel, EventScheduler, ImageStore): boolean &lt;&lt;static&gt;&gt;" style="text;strokeColor=none;fillColor=none;align=left;verticalAlign=top;spacingLeft=4;spacingRight=4;overflow=hidden;rotatable=0;points=[[0,0.5],[1,0.5]];portConstraint=eastwest;" parent="69" vertex="1"><mxGeometry y="1530" width="500" height="22" as="geometry"/></mxCell><mxCell id="644" value="+ moveToFairy(Entity, WorldModel, Entity, EventSchuler): boolean &lt;&lt;static&gt;&gt;" style="text;strokeColor=none;fillColor=none;align=left;verticalAlign=top;spacingLeft=4;spacingRight=4;overflow=hidden;rotatable=0;points=[[0,0.5],[1,0.5]];portConstraint=eastwest;" parent="69" vertex="1"><mxGeometry y="1552" width="500" height="22" as="geometry"/></mxCell><mxCell id="645" value="+ moveToNotFull(Entity, WorldModel, Entity, EventSchuler): boolean &lt;&lt;static&gt;&gt;" style="text;strokeColor=none;fillColor=none;align=left;verticalAlign=top;spacingLeft=4;spacingRight=4;overflow=hidden;rotatable=0;points=[[0,0.5],[1,0.5]];portConstraint=eastwest;" parent="69" vertex="1"><mxGeometry y="1574" width="500" height="22" as="geometry"/></mxCell><mxCell id="646" value="+ moveToFull(Entity, WorldModel, Entity, EVentScheduler): boolean &lt;&lt;static&gt;&gt;" style="text;strokeColor=none;fillColor=none;align=left;verticalAlign=top;spacingLeft=4;spacingRight=4;overflow=hidden;rotatable=0;points=[[0,0.5],[1,0.5]];portConstraint=eastwest;" parent="69" vertex="1"><mxGeometry y="1596" width="500" height="22" as="geometry"/></mxCell><mxCell id="647" value="+ movePositionFairy(Entity, WorldModel, Point): Point&lt;&lt;static&gt;&gt;" style="text;strokeColor=none;fillColor=none;align=left;verticalAlign=top;spacingLeft=4;spacingRight=4;overflow=hidden;rotatable=0;points=[[0,0.5],[1,0.5]];portConstraint=eastwest;" parent="69" vertex="1"><mxGeometry y="1618" width="500" height="22" as="geometry"/></mxCell><mxCell id="739" value="+ movePositionDude(Entity, WorldModel, Point): Point&lt;&lt;static&gt;&gt;" style="text;strokeColor=none;fillColor=none;align=left;verticalAlign=top;spacingLeft=4;spacingRight=4;overflow=hidden;rotatable=0;points=[[0,0.5],[1,0.5]];portConstraint=eastwest;" parent="69" vertex="1"><mxGeometry y="1640" width="500" height="22" as="geometry"/></mxCell><mxCell id="740" value="+ adjacent(Point, Point): boolean &lt;&lt;static&gt;&gt;" style="text;strokeColor=none;fillColor=none;align=left;verticalAlign=top;spacingLeft=4;spacingRight=4;overflow=hidden;rotatable=0;points=[[0,0.5],[1,0.5]];portConstraint=eastwest;" parent="69" vertex="1"><mxGeometry y="1662" width="500" height="22" as="geometry"/></mxCell><mxCell id="741" value="+ getIntFromRange(int, int): int &lt;&lt;static&gt;&gt;" style="text;strokeColor=none;fillColor=none;align=left;verticalAlign=top;spacingLeft=4;spacingRight=4;overflow=hidden;rotatable=0;points=[[0,0.5],[1,0.5]];portConstraint=eastwest;" parent="69" vertex="1"><mxGeometry y="1684" width="500" height="22" as="geometry"/></mxCell><mxCell id="742" value="+ getNumFromRange(double, double): double &lt;&lt;static&gt;&gt;" style="text;strokeColor=none;fillColor=none;align=left;verticalAlign=top;spacingLeft=4;spacingRight=4;overflow=hidden;rotatable=0;points=[[0,0.5],[1,0.5]];portConstraint=eastwest;" parent="69" vertex="1"><mxGeometry y="1706" width="500" height="22" as="geometry"/></mxCell><mxCell id="146" value="+ scheduleEvent(EventScheduler, Entity, Action, double): void &lt;&lt;static&gt;&gt;" style="text;strokeColor=none;fillColor=none;align=left;verticalAlign=top;spacingLeft=4;spacingRight=4;overflow=hidden;rotatable=0;points=[[0,0.5],[1,0.5]];portConstraint=eastwest;" parent="69" vertex="1"><mxGeometry y="1728" width="500" height="30" as="geometry"/></mxCell><mxCell id="147" value="+ unscheduleAllEvent(Event Scheduler, Entiy): void &lt;&lt;static&gt;&gt;" style="text;strokeColor=none;fillColor=none;align=left;verticalAlign=top;spacingLeft=4;spacingRight=4;overflow=hidden;rotatable=0;points=[[0,0.5],[1,0.5]];portConstraint=eastwest;" parent="69" vertex="1"><mxGeometry y="1758" width="500" height="30" as="geometry"/></mxCell><mxCell id="149" value="+ removePendingEvent(EventScheduler, Event): void &lt;&lt;static&gt;&gt;" style="text;strokeColor=none;fillColor=none;align=left;verticalAlign=top;spacingLeft=4;spacingRight=4;overflow=hidden;rotatable=0;points=[[0,0.5],[1,0.5]];portConstraint=eastwest;" parent="69" vertex="1"><mxGeometry y="1788" width="500" height="30" as="geometry"/></mxCell><mxCell id="495" value="+ updateOnTime(EventScheduler, double time): void &lt;&lt;statoc&gt;&gt;" style="text;strokeColor=none;fillColor=none;align=left;verticalAlign=top;spacingLeft=4;spacingRight=4;overflow=hidden;rotatable=0;points=[[0,0.5],[1,0.5]];portConstraint=eastwest;" parent="69" vertex="1"><mxGeometry y="1818" width="500" height="30" as="geometry"/></mxCell><mxCell id="150" value="+ parseSapling(WorldModel, String[], Point, String, ImageStore): void &lt;&lt;static&gt;&gt;" style="text;strokeColor=none;fillColor=none;align=left;verticalAlign=top;spacingLeft=4;spacingRight=4;overflow=hidden;rotatable=0;points=[[0,0.5],[1,0.5]];portConstraint=eastwest;" parent="69" vertex="1"><mxGeometry y="1848" width="500" height="30" as="geometry"/></mxCell><mxCell id="151" value="+ parseDude(WorldModel, String[], Point, String, ImageStore): void &lt;&lt;static&gt;&gt;" style="text;strokeColor=none;fillColor=none;align=left;verticalAlign=top;spacingLeft=4;spacingRight=4;overflow=hidden;rotatable=0;points=[[0,0.5],[1,0.5]];portConstraint=eastwest;" parent="69" vertex="1"><mxGeometry y="1878" width="500" height="30" as="geometry"/></mxCell><mxCell id="152" value="+ parseFairy(WorldModel, String[], Point, String, ImageStore): void &lt;&lt;static&gt;&gt;" style="text;strokeColor=none;fillColor=none;align=left;verticalAlign=top;spacingLeft=4;spacingRight=4;overflow=hidden;rotatable=0;points=[[0,0.5],[1,0.5]];portConstraint=eastwest;" parent="69" vertex="1"><mxGeometry y="1908" width="500" height="30" as="geometry"/></mxCell><mxCell id="153" value="+ parseTree(WorldModel, String[], Point, String, ImageStore): void &lt;&lt;static&gt;&gt;" style="text;strokeColor=none;fillColor=none;align=left;verticalAlign=top;spacingLeft=4;spacingRight=4;overflow=hidden;rotatable=0;points=[[0,0.5],[1,0.5]];portConstraint=eastwest;" parent="69" vertex="1"><mxGeometry y="1938" width="500" height="30" as="geometry"/></mxCell><mxCell id="154" value="+ parseObstacle(WorldModel, String[], Point, String, ImageStore): void &lt;&lt;static&gt;&gt;" style="text;strokeColor=none;fillColor=none;align=left;verticalAlign=top;spacingLeft=4;spacingRight=4;overflow=hidden;rotatable=0;points=[[0,0.5],[1,0.5]];portConstraint=eastwest;" parent="69" vertex="1"><mxGeometry y="1968" width="500" height="30" as="geometry"/></mxCell><mxCell id="155" value="+ parseHouse(WorldModel, String[], Point, String, ImageStore): void &lt;&lt;static&gt;&gt;" style="text;strokeColor=none;fillColor=none;align=left;verticalAlign=top;spacingLeft=4;spacingRight=4;overflow=hidden;rotatable=0;points=[[0,0.5],[1,0.5]];portConstraint=eastwest;" parent="69" vertex="1"><mxGeometry y="1998" width="500" height="30" as="geometry"/></mxCell><mxCell id="157" value="+ parseStump(WorldModel, String[], Point, String, ImageStore): void &lt;&lt;static&gt;&gt;" style="text;strokeColor=none;fillColor=none;align=left;verticalAlign=top;spacingLeft=4;spacingRight=4;overflow=hidden;rotatable=0;points=[[0,0.5],[1,0.5]];portConstraint=eastwest;" parent="69" vertex="1"><mxGeometry y="2028" width="500" height="30" as="geometry"/></mxCell><mxCell id="156" value="+ tryAddEntity(WorldModel, Entity): void &lt;&lt;static&gt;&gt;" style="text;strokeColor=none;fillColor=none;align=left;verticalAlign=top;spacingLeft=4;spacingRight=4;overflow=hidden;rotatable=0;points=[[0,0.5],[1,0.5]];portConstraint=eastwest;" parent="69" vertex="1"><mxGeometry y="2058" width="500" height="30" as="geometry"/></mxCell><mxCell id="158" value="+ withinbounds(WorldModel, Point): boolean &lt;&lt;static&gt;&gt;" style="text;strokeColor=none;fillColor=none;align=left;verticalAlign=top;spacingLeft=4;spacingRight=4;overflow=hidden;rotatable=0;points=[[0,0.5],[1,0.5]];portConstraint=eastwest;" parent="69" vertex="1"><mxGeometry y="2088" width="500" height="30" as="geometry"/></mxCell><mxCell id="517" style="edgeStyle=orthogonalEdgeStyle;rounded=0;orthogonalLoop=1;jettySize=auto;html=1;exitX=0;exitY=0.5;exitDx=0;exitDy=0;entryX=0;entryY=0.5;entryDx=0;entryDy=0;" parent="69" source="159" target="160" edge="1"><mxGeometry relative="1" as="geometry"/></mxCell><mxCell id="159" value="+ isOccupied(WorldModel, Points): boolean &lt;&lt;static&gt;&gt;" style="text;strokeColor=none;fillColor=none;align=left;verticalAlign=top;spacingLeft=4;spacingRight=4;overflow=hidden;rotatable=0;points=[[0,0.5],[1,0.5]];portConstraint=eastwest;" parent="69" vertex="1"><mxGeometry y="2118" width="500" height="30" as="geometry"/></mxCell><mxCell id="160" value="+ neareastEntity(List&lt;Entity&gt;, Point): Optional&lt;Entity&gt; &lt;&lt;static&gt;&gt; " style="text;strokeColor=none;fillColor=none;align=left;verticalAlign=top;spacingLeft=4;spacingRight=4;overflow=hidden;rotatable=0;points=[[0,0.5],[1,0.5]];portConstraint=eastwest;" parent="69" vertex="1"><mxGeometry y="2148" width="500" height="30" as="geometry"/></mxCell><mxCell id="161" value="+ distanceSquared(Point, Point): int &lt;&lt;static&gt;&gt;" style="text;strokeColor=none;fillColor=none;align=left;verticalAlign=top;spacingLeft=4;spacingRight=4;overflow=hidden;rotatable=0;points=[[0,0.5],[1,0.5]];portConstraint=eastwest;" parent="69" vertex="1"><mxGeometry y="2178" width="500" height="30" as="geometry"/></mxCell><mxCell id="165" value="+ findNearest(WorldModel, Point, List&lt;Entitykind&gt;): Optional&lt;Entity&gt; &lt;&lt;static&gt;&gt;" style="text;strokeColor=none;fillColor=none;align=left;verticalAlign=top;spacingLeft=4;spacingRight=4;overflow=hidden;rotatable=0;points=[[0,0.5],[1,0.5]];portConstraint=eastwest;" parent="69" vertex="1"><mxGeometry y="2208" width="500" height="30" as="geometry"/></mxCell><mxCell id="166" value="+ addEntity(WorldModel, Entity): void &lt;&lt;static&gt;&gt;" style="text;strokeColor=none;fillColor=none;align=left;verticalAlign=top;spacingLeft=4;spacingRight=4;overflow=hidden;rotatable=0;points=[[0,0.5],[1,0.5]];portConstraint=eastwest;" parent="69" vertex="1"><mxGeometry y="2238" width="500" height="30" as="geometry"/></mxCell><mxCell id="167" value="+ moveEntity(WorldModel, EventScheduler, Entity, Point): void &lt;&lt;static&gt;&gt;" style="text;strokeColor=none;fillColor=none;align=left;verticalAlign=top;spacingLeft=4;spacingRight=4;overflow=hidden;rotatable=0;points=[[0,0.5],[1,0.5]];portConstraint=eastwest;" parent="69" vertex="1"><mxGeometry y="2268" width="500" height="30" as="geometry"/></mxCell><mxCell id="168" value="+ removeEntity(WorldModel, EventScheduler, Entity): void &lt;&lt;static&gt;&gt;" style="text;strokeColor=none;fillColor=none;align=left;verticalAlign=top;spacingLeft=4;spacingRight=4;overflow=hidden;rotatable=0;points=[[0,0.5],[1,0.5]];portConstraint=eastwest;" parent="69" vertex="1"><mxGeometry y="2298" width="500" height="30" as="geometry"/></mxCell><mxCell id="169" value="+ removeEntityAt(WorldModel, Point): void &lt;&lt;static&gt;&gt;" style="text;strokeColor=none;fillColor=none;align=left;verticalAlign=top;spacingLeft=4;spacingRight=4;overflow=hidden;rotatable=0;points=[[0,0.5],[1,0.5]];portConstraint=eastwest;" parent="69" vertex="1"><mxGeometry y="2328" width="500" height="30" as="geometry"/></mxCell><mxCell id="170" value="+ getOccupant(WorldModel, Point): Optional&lt;Entity&gt; &lt;&lt;static&gt;&gt;" style="text;strokeColor=none;fillColor=none;align=left;verticalAlign=top;spacingLeft=4;spacingRight=4;overflow=hidden;rotatable=0;points=[[0,0.5],[1,0.5]];portConstraint=eastwest;" parent="69" vertex="1"><mxGeometry y="2358" width="500" height="30" as="geometry"/></mxCell><mxCell id="171" value="+ getOccupancyCell(WorldModel, Point): Entity &lt;&lt;static&gt;&gt;" style="text;strokeColor=none;fillColor=none;align=left;verticalAlign=top;spacingLeft=4;spacingRight=4;overflow=hidden;rotatable=0;points=[[0,0.5],[1,0.5]];portConstraint=eastwest;" parent="69" vertex="1"><mxGeometry y="2388" width="500" height="30" as="geometry"/></mxCell><mxCell id="172" value="+ setOccupancyCell(WorldMOdel, Point, Entity): void &lt;&lt;static&gt;&gt;" style="text;strokeColor=none;fillColor=none;align=left;verticalAlign=top;spacingLeft=4;spacingRight=4;overflow=hidden;rotatable=0;points=[[0,0.5],[1,0.5]];portConstraint=eastwest;" parent="69" vertex="1"><mxGeometry y="2418" width="500" height="30" as="geometry"/></mxCell><mxCell id="173" value="+ createAnimationAction(Entity, int): Action &lt;&lt;static&gt;&gt;" style="text;strokeColor=none;fillColor=none;align=left;verticalAlign=top;spacingLeft=4;spacingRight=4;overflow=hidden;rotatable=0;points=[[0,0.5],[1,0.5]];portConstraint=eastwest;" parent="69" vertex="1"><mxGeometry y="2448" width="500" height="30" as="geometry"/></mxCell><mxCell id="540" value="+ createActivityAction(Entity, WorldModel, ImageStore): Action &lt;&lt;static&gt;&gt;" style="text;strokeColor=none;fillColor=none;align=left;verticalAlign=top;spacingLeft=4;spacingRight=4;overflow=hidden;rotatable=0;points=[[0,0.5],[1,0.5]];portConstraint=eastwest;" parent="69" vertex="1"><mxGeometry y="2478" width="500" height="30" as="geometry"/></mxCell><mxCell id="174" value="+ createHouse(String, Point, List&lt;PImage&gt;: Entity &lt;&lt;static&gt;&gt;" style="text;strokeColor=none;fillColor=none;align=left;verticalAlign=top;spacingLeft=4;spacingRight=4;overflow=hidden;rotatable=0;points=[[0,0.5],[1,0.5]];portConstraint=eastwest;" parent="69" vertex="1"><mxGeometry y="2508" width="500" height="30" as="geometry"/></mxCell><mxCell id="175" value="+ createObstacle(String, Point, double, List&lt;PImage&gt;): Entity &lt;&lt;static&gt;&gt;" style="text;strokeColor=none;fillColor=none;align=left;verticalAlign=top;spacingLeft=4;spacingRight=4;overflow=hidden;rotatable=0;points=[[0,0.5],[1,0.5]];portConstraint=eastwest;" parent="69" vertex="1"><mxGeometry y="2538" width="500" height="30" as="geometry"/></mxCell><mxCell id="176" value="+ createTree(String, Point, double, double, int, List&lt;PImage&gt;): Entity &lt;&lt;static&gt;&gt;" style="text;strokeColor=none;fillColor=none;align=left;verticalAlign=top;spacingLeft=4;spacingRight=4;overflow=hidden;rotatable=0;points=[[0,0.5],[1,0.5]];portConstraint=eastwest;" parent="69" vertex="1"><mxGeometry y="2568" width="500" height="30" as="geometry"/></mxCell><mxCell id="277" value="+ createStump(String, Point, List&lt;PImage&gt;): Entity &lt;&lt;static&gt;&gt;" style="text;strokeColor=none;fillColor=none;align=left;verticalAlign=top;spacingLeft=4;spacingRight=4;overflow=hidden;rotatable=0;points=[[0,0.5],[1,0.5]];portConstraint=eastwest;" parent="69" vertex="1"><mxGeometry y="2598" width="500" height="30" as="geometry"/></mxCell><mxCell id="278" value="+ createSapling(String, Point, List&lt;PImage&gt;, int): Entity &lt;&lt;static&gt;&gt;" style="text;strokeColor=none;fillColor=none;align=left;verticalAlign=top;spacingLeft=4;spacingRight=4;overflow=hidden;rotatable=0;points=[[0,0.5],[1,0.5]];portConstraint=eastwest;" parent="69" vertex="1"><mxGeometry y="2628" width="500" height="30" as="geometry"/></mxCell><mxCell id="279" value="+ createFairy(String, Point, double, double, List&lt;PImage&gt;, int): Entity &lt;&lt;static&gt;&gt;" style="text;strokeColor=none;fillColor=none;align=left;verticalAlign=top;spacingLeft=4;spacingRight=4;overflow=hidden;rotatable=0;points=[[0,0.5],[1,0.5]];portConstraint=eastwest;" parent="69" vertex="1"><mxGeometry y="2658" width="500" height="30" as="geometry"/></mxCell><mxCell id="280" value="+ createDudeNotFull(String, Point, double, double, int, List&lt;PImage&gt;, int): Entity &lt;&lt;static&gt;&gt;" style="text;strokeColor=none;fillColor=none;align=left;verticalAlign=top;spacingLeft=4;spacingRight=4;overflow=hidden;rotatable=0;points=[[0,0.5],[1,0.5]];portConstraint=eastwest;" parent="69" vertex="1"><mxGeometry y="2688" width="500" height="30" as="geometry"/></mxCell><mxCell id="281" value="+ createDudeFull(String, Point, double, double, int, List&lt;PImage&gt;, int): Entity &lt;&lt;static&gt;&gt;" style="text;strokeColor=none;fillColor=none;align=left;verticalAlign=top;spacingLeft=4;spacingRight=4;overflow=hidden;rotatable=0;points=[[0,0.5],[1,0.5]];portConstraint=eastwest;" parent="69" vertex="1"><mxGeometry y="2718" width="500" height="30" as="geometry"/></mxCell><mxCell id="282" value="+ load(WorldModel, Scanner, ImageStore, background): void &lt;&lt;static&gt;&gt;" style="text;strokeColor=none;fillColor=none;align=left;verticalAlign=top;spacingLeft=4;spacingRight=4;overflow=hidden;rotatable=0;points=[[0,0.5],[1,0.5]];portConstraint=eastwest;" parent="69" vertex="1"><mxGeometry y="2748" width="500" height="30" as="geometry"/></mxCell><mxCell id="283" value="+ parseSaveFile(WorldModel, Scanner, ImageStore, Background): void &lt;&lt;static&gt;&gt;" style="text;strokeColor=none;fillColor=none;align=left;verticalAlign=top;spacingLeft=4;spacingRight=4;overflow=hidden;rotatable=0;points=[[0,0.5],[1,0.5]];portConstraint=eastwest;" parent="69" vertex="1"><mxGeometry y="2778" width="500" height="30" as="geometry"/></mxCell><mxCell id="284" value="+ parseBackgroundRow(WorldModel, String, int, ImageStore): void &lt;&lt;static&gt;&gt;" style="text;strokeColor=none;fillColor=none;align=left;verticalAlign=top;spacingLeft=4;spacingRight=4;overflow=hidden;rotatable=0;points=[[0,0.5],[1,0.5]];portConstraint=eastwest;" parent="69" vertex="1"><mxGeometry y="2808" width="500" height="30" as="geometry"/></mxCell><mxCell id="285" value="+ parseEntity(WorldModel, String, ImageStore): void &lt;&lt;static&gt;&gt;" style="text;strokeColor=none;fillColor=none;align=left;verticalAlign=top;spacingLeft=4;spacingRight=4;overflow=hidden;rotatable=0;points=[[0,0.5],[1,0.5]];portConstraint=eastwest;" parent="69" vertex="1"><mxGeometry y="2838" width="500" height="30" as="geometry"/></mxCell><mxCell id="286" value="+ getCurrentImage(Object): PImage &lt;&lt;static&gt;&gt;" style="text;strokeColor=none;fillColor=none;align=left;verticalAlign=top;spacingLeft=4;spacingRight=4;overflow=hidden;rotatable=0;points=[[0,0.5],[1,0.5]];portConstraint=eastwest;" parent="69" vertex="1"><mxGeometry y="2868" width="500" height="30" as="geometry"/></mxCell><mxCell id="287" value="+ getBackgroundCell(WorldModel, Point): Background &lt;&lt;static&gt;&gt;" style="text;strokeColor=none;fillColor=none;align=left;verticalAlign=top;spacingLeft=4;spacingRight=4;overflow=hidden;rotatable=0;points=[[0,0.5],[1,0.5]];portConstraint=eastwest;" parent="69" vertex="1"><mxGeometry y="2898" width="500" height="30" as="geometry"/></mxCell><mxCell id="558" value="+ setBackgroundCell(WorldModel, Point, Background): void &lt;&lt;static&gt;&gt;" style="text;strokeColor=none;fillColor=none;align=left;verticalAlign=top;spacingLeft=4;spacingRight=4;overflow=hidden;rotatable=0;points=[[0,0.5],[1,0.5]];portConstraint=eastwest;" parent="69" vertex="1"><mxGeometry y="2928" width="500" height="30" as="geometry"/></mxCell><mxCell id="288" value="+ viewportToWorld(ViewPort, int, int): Point &lt;&lt;static&gt;&gt;" style="text;strokeColor=none;fillColor=none;align=left;verticalAlign=top;spacingLeft=4;spacingRight=4;overflow=hidden;rotatable=0;points=[[0,0.5],[1,0.5]];portConstraint=eastwest;" parent="69" vertex="1"><mxGeometry y="2958" width="500" height="30" as="geometry"/></mxCell><mxCell id="289" value="+ worldToViewport(Viewport, int, int): Point &lt;&lt;static&gt;&gt;" style="text;strokeColor=none;fillColor=none;align=left;verticalAlign=top;spacingLeft=4;spacingRight=4;overflow=hidden;rotatable=0;points=[[0,0.5],[1,0.5]];portConstraint=eastwest;" parent="69" vertex="1"><mxGeometry y="2988" width="500" height="30" as="geometry"/></mxCell><mxCell id="290" value="+ clamp(int, int, int): int &lt;&lt;static&gt;&gt;" style="text;strokeColor=none;fillColor=none;align=left;verticalAlign=top;spacingLeft=4;spacingRight=4;overflow=hidden;rotatable=0;points=[[0,0.5],[1,0.5]];portConstraint=eastwest;" parent="69" vertex="1"><mxGeometry y="3018" width="500" height="30" as="geometry"/></mxCell><mxCell id="291" value="+ shiftView(WorldView, int, int): void &lt;&lt;static&gt;&gt;" style="text;strokeColor=none;fillColor=none;align=left;verticalAlign=top;spacingLeft=4;spacingRight=4;overflow=hidden;rotatable=0;points=[[0,0.5],[1,0.5]];portConstraint=eastwest;" parent="69" vertex="1"><mxGeometry y="3048" width="500" height="30" as="geometry"/></mxCell><mxCell id="292" value="+ processImageLine(Map&lt;String, List&lt;PImage&gt;&gt;, String, PApplet): void &lt;&lt;static&gt;&gt;" style="text;strokeColor=none;fillColor=none;align=left;verticalAlign=top;spacingLeft=4;spacingRight=4;overflow=hidden;rotatable=0;points=[[0,0.5],[1,0.5]];portConstraint=eastwest;" parent="69" vertex="1"><mxGeometry y="3078" width="500" height="30" as="geometry"/></mxCell><mxCell id="293" value="+ getImages(Map&lt;String, List&lt;PImage&gt;&gt;, String): List&lt;PImage&gt; &lt;&lt;static&gt;&gt;" style="text;strokeColor=none;fillColor=none;align=left;verticalAlign=top;spacingLeft=4;spacingRight=4;overflow=hidden;rotatable=0;points=[[0,0.5],[1,0.5]];portConstraint=eastwest;" parent="69" vertex="1"><mxGeometry y="3108" width="500" height="30" as="geometry"/></mxCell><mxCell id="294" value="+ setAlpha(PImage, int, int): void &lt;&lt;static&gt;&gt;" style="text;strokeColor=none;fillColor=none;align=left;verticalAlign=top;spacingLeft=4;spacingRight=4;overflow=hidden;rotatable=0;points=[[0,0.5],[1,0.5]];portConstraint=eastwest;" parent="69" vertex="1"><mxGeometry y="3138" width="500" height="30" as="geometry"/></mxCell><mxCell id="295" value="+ shift(Viewport, int, int): void &lt;&lt;static&gt;&gt;" style="text;strokeColor=none;fillColor=none;align=left;verticalAlign=top;spacingLeft=4;spacingRight=4;overflow=hidden;rotatable=0;points=[[0,0.5],[1,0.5]];portConstraint=eastwest;" parent="69" vertex="1"><mxGeometry y="3168" width="500" height="30" as="geometry"/></mxCell><mxCell id="296" value="+ contains(Viewport, Point): boolean &lt;&lt;static&gt;&gt;" style="text;strokeColor=none;fillColor=none;align=left;verticalAlign=top;spacingLeft=4;spacingRight=4;overflow=hidden;rotatable=0;points=[[0,0.5],[1,0.5]];portConstraint=eastwest;" parent="69" vertex="1"><mxGeometry y="3198" width="500" height="30" as="geometry"/></mxCell><mxCell id="297" value="+ getBackgroundImage(WorldModel, Point): Optional&lt;PImage&gt; &lt;&lt;static&gt;&gt;" style="text;strokeColor=none;fillColor=none;align=left;verticalAlign=top;spacingLeft=4;spacingRight=4;overflow=hidden;rotatable=0;points=[[0,0.5],[1,0.5]];portConstraint=eastwest;" parent="69" vertex="1"><mxGeometry y="3228" width="500" height="30" as="geometry"/></mxCell><mxCell id="298" value="+ drawBackground(Worldview): void &lt;&lt;static&gt;&gt;" style="text;strokeColor=none;fillColor=none;align=left;verticalAlign=top;spacingLeft=4;spacingRight=4;overflow=hidden;rotatable=0;points=[[0,0.5],[1,0.5]];portConstraint=eastwest;" parent="69" vertex="1"><mxGeometry y="3258" width="500" height="30" as="geometry"/></mxCell><mxCell id="299" value="+ drawEntities(WorldView): void &lt;&lt;static&gt;&gt;" style="text;strokeColor=none;fillColor=none;align=left;verticalAlign=top;spacingLeft=4;spacingRight=4;overflow=hidden;rotatable=0;points=[[0,0.5],[1,0.5]];portConstraint=eastwest;" parent="69" vertex="1"><mxGeometry y="3288" width="500" height="30" as="geometry"/></mxCell><mxCell id="300" value="+ drawViewport(WorldView): void &lt;&lt;static&gt;&gt;" style="text;strokeColor=none;fillColor=none;align=left;verticalAlign=top;spacingLeft=4;spacingRight=4;overflow=hidden;rotatable=0;points=[[0,0.5],[1,0.5]];portConstraint=eastwest;" parent="69" vertex="1"><mxGeometry y="3318" width="500" height="30" as="geometry"/></mxCell><mxCell id="301" value="+ getImageList(ImageStore, String): List&lt;PImage&gt; &lt;&lt;static&gt;&gt;" style="text;strokeColor=none;fillColor=none;align=left;verticalAlign=top;spacingLeft=4;spacingRight=4;overflow=hidden;rotatable=0;points=[[0,0.5],[1,0.5]];portConstraint=eastwest;" parent="69" vertex="1"><mxGeometry y="3348" width="500" height="30" as="geometry"/></mxCell><mxCell id="302" value="+ loadImages(Scanner, ImageStore, PApplet): void &lt;&lt;static&gt;&gt;" style="text;strokeColor=none;fillColor=none;align=left;verticalAlign=top;spacingLeft=4;spacingRight=4;overflow=hidden;rotatable=0;points=[[0,0.5],[1,0.5]];portConstraint=eastwest;" parent="69" vertex="1"><mxGeometry y="3378" width="500" height="30" as="geometry"/></mxCell><mxCell id="792" style="edgeStyle=orthogonalEdgeStyle;rounded=0;orthogonalLoop=1;jettySize=auto;html=1;exitX=0.5;exitY=0;exitDx=0;exitDy=0;" parent="1" source="312" target="557" edge="1"><mxGeometry relative="1" as="geometry"/></mxCell><mxCell id="312" value="ImageStore" style="swimlane;fontStyle=1;align=center;verticalAlign=top;childLayout=stackLayout;horizontal=1;startSize=26;horizontalStack=0;resizeParent=1;resizeParentMax=0;resizeLast=0;collapsible=1;marginBottom=0;" parent="1" vertex="1"><mxGeometry x="-780" y="1728" width="470" height="392" as="geometry"><mxRectangle x="110" y="2730" width="110" height="30" as="alternateBounds"/></mxGeometry></mxCell><mxCell id="313" value="+ images: Map&lt;String, List&lt;Pimage&gt;&gt;" style="text;strokeColor=none;fillColor=none;align=left;verticalAlign=top;spacingLeft=4;spacingRight=4;overflow=hidden;rotatable=0;points=[[0,0.5],[1,0.5]];portConstraint=eastwest;" parent="312" vertex="1"><mxGeometry y="26" width="470" height="34" as="geometry"/></mxCell><mxCell id="316" value="+ defaultImages: List&lt;PImage&gt;" style="text;strokeColor=none;fillColor=none;align=left;verticalAlign=top;spacingLeft=4;spacingRight=4;overflow=hidden;rotatable=0;points=[[0,0.5],[1,0.5]];portConstraint=eastwest;" parent="312" vertex="1"><mxGeometry y="60" width="470" height="34" as="geometry"/></mxCell><mxCell id="579" value="+ COLOR_MASK: int &lt;&lt;static&gt;&gt;" style="text;strokeColor=none;fillColor=none;align=left;verticalAlign=top;spacingLeft=4;spacingRight=4;overflow=hidden;rotatable=0;points=[[0,0.5],[1,0.5]];portConstraint=eastwest;" parent="312" vertex="1"><mxGeometry y="94" width="470" height="34" as="geometry"/></mxCell><mxCell id="580" value="+ KEYED_IMAGE_MIN: int &lt;&lt;static&gt;&gt;" style="text;strokeColor=none;fillColor=none;align=left;verticalAlign=top;spacingLeft=4;spacingRight=4;overflow=hidden;rotatable=0;points=[[0,0.5],[1,0.5]];portConstraint=eastwest;" parent="312" vertex="1"><mxGeometry y="128" width="470" height="34" as="geometry"/></mxCell><mxCell id="581" value="+ KEYED_RED_IDX: int &lt;&lt;static&gt;&gt;" style="text;strokeColor=none;fillColor=none;align=left;verticalAlign=top;spacingLeft=4;spacingRight=4;overflow=hidden;rotatable=0;points=[[0,0.5],[1,0.5]];portConstraint=eastwest;" parent="312" vertex="1"><mxGeometry y="162" width="470" height="34" as="geometry"/></mxCell><mxCell id="582" value="+ KEYED_GREEN_IDX: int &lt;&lt;static&gt;&gt;" style="text;strokeColor=none;fillColor=none;align=left;verticalAlign=top;spacingLeft=4;spacingRight=4;overflow=hidden;rotatable=0;points=[[0,0.5],[1,0.5]];portConstraint=eastwest;" parent="312" vertex="1"><mxGeometry y="196" width="470" height="34" as="geometry"/></mxCell><mxCell id="583" value="+ KEYED_BLUE_IDX: int &lt;&lt;static&gt;&gt;" style="text;strokeColor=none;fillColor=none;align=left;verticalAlign=top;spacingLeft=4;spacingRight=4;overflow=hidden;rotatable=0;points=[[0,0.5],[1,0.5]];portConstraint=eastwest;" parent="312" vertex="1"><mxGeometry y="230" width="470" height="34" as="geometry"/></mxCell><mxCell id="314" value="" style="line;strokeWidth=1;fillColor=none;align=left;verticalAlign=middle;spacingTop=-1;spacingLeft=3;spacingRight=3;rotatable=0;labelPosition=right;points=[];portConstraint=eastwest;strokeColor=inherit;" parent="312" vertex="1"><mxGeometry y="264" width="470" height="8" as="geometry"/></mxCell><mxCell id="569" value="+ processImageLine(Map&lt;String, List&lt;PImage&gt;&gt;, String, PApplet): void &lt;&lt;static&gt;&gt;" style="text;strokeColor=none;fillColor=none;align=left;verticalAlign=top;spacingLeft=4;spacingRight=4;overflow=hidden;rotatable=0;points=[[0,0.5],[1,0.5]];portConstraint=eastwest;" parent="312" vertex="1"><mxGeometry y="272" width="470" height="30" as="geometry"/></mxCell><mxCell id="570" value="+ getImages(Map&lt;String, List&lt;PImage&gt;&gt;, String): List&lt;PImage&gt; &lt;&lt;static&gt;&gt;" style="text;strokeColor=none;fillColor=none;align=left;verticalAlign=top;spacingLeft=4;spacingRight=4;overflow=hidden;rotatable=0;points=[[0,0.5],[1,0.5]];portConstraint=eastwest;" parent="312" vertex="1"><mxGeometry y="302" width="470" height="30" as="geometry"/></mxCell><mxCell id="571" value="+ setAlpha(PImage, int, int): void &lt;&lt;static&gt;&gt;" style="text;strokeColor=none;fillColor=none;align=left;verticalAlign=top;spacingLeft=4;spacingRight=4;overflow=hidden;rotatable=0;points=[[0,0.5],[1,0.5]];portConstraint=eastwest;" parent="312" vertex="1"><mxGeometry y="332" width="470" height="30" as="geometry"/></mxCell><mxCell id="303" value="+ loadImages(Scanner, ImageStore, PPpplet): void &lt;&lt;static&gt;&gt;" style="text;strokeColor=none;fillColor=none;align=left;verticalAlign=top;spacingLeft=4;spacingRight=4;overflow=hidden;rotatable=0;points=[[0,0.5],[1,0.5]];portConstraint=eastwest;" parent="312" vertex="1"><mxGeometry y="362" width="470" height="30" as="geometry"/></mxCell><mxCell id="776" style="edgeStyle=orthogonalEdgeStyle;rounded=0;orthogonalLoop=1;jettySize=auto;html=1;exitX=0.5;exitY=0;exitDx=0;exitDy=0;entryX=1;entryY=0.5;entryDx=0;entryDy=0;" parent="1" source="317" target="619" edge="1"><mxGeometry relative="1" as="geometry"/></mxCell><mxCell id="317" value="Point" style="swimlane;fontStyle=1;align=center;verticalAlign=top;childLayout=stackLayout;horizontal=1;startSize=26;horizontalStack=0;resizeParent=1;resizeParentMax=0;resizeLast=0;collapsible=1;marginBottom=0;" parent="1" vertex="1"><mxGeometry x="-810" y="1500" width="170" height="194" as="geometry"><mxRectangle x="-295" y="420" width="190" height="120" as="alternateBounds"/></mxGeometry></mxCell><mxCell id="318" value="+ x: int" style="text;strokeColor=none;fillColor=none;align=left;verticalAlign=top;spacingLeft=4;spacingRight=4;overflow=hidden;rotatable=0;points=[[0,0.5],[1,0.5]];portConstraint=eastwest;" parent="317" vertex="1"><mxGeometry y="26" width="170" height="26" as="geometry"/></mxCell><mxCell id="321" value="+ y: int" style="text;strokeColor=none;fillColor=none;align=left;verticalAlign=top;spacingLeft=4;spacingRight=4;overflow=hidden;rotatable=0;points=[[0,0.5],[1,0.5]];portConstraint=eastwest;" parent="317" vertex="1"><mxGeometry y="52" width="170" height="26" as="geometry"/></mxCell><mxCell id="319" value="" style="line;strokeWidth=1;fillColor=none;align=left;verticalAlign=middle;spacingTop=-1;spacingLeft=3;spacingRight=3;rotatable=0;labelPosition=right;points=[];portConstraint=eastwest;strokeColor=inherit;" parent="317" vertex="1"><mxGeometry y="78" width="170" height="8" as="geometry"/></mxCell><mxCell id="320" value="+ toString(): String" style="text;strokeColor=none;fillColor=none;align=left;verticalAlign=top;spacingLeft=4;spacingRight=4;overflow=hidden;rotatable=0;points=[[0,0.5],[1,0.5]];portConstraint=eastwest;" parent="317" vertex="1"><mxGeometry y="86" width="170" height="26" as="geometry"/></mxCell><mxCell id="322" value="+ equals(Object): boolean" style="text;strokeColor=none;fillColor=none;align=left;verticalAlign=top;spacingLeft=4;spacingRight=4;overflow=hidden;rotatable=0;points=[[0,0.5],[1,0.5]];portConstraint=eastwest;" parent="317" vertex="1"><mxGeometry y="112" width="170" height="26" as="geometry"/></mxCell><mxCell id="324" value="+ hashCode(): int" style="text;strokeColor=none;fillColor=none;align=left;verticalAlign=top;spacingLeft=4;spacingRight=4;overflow=hidden;rotatable=0;points=[[0,0.5],[1,0.5]];portConstraint=eastwest;" parent="317" vertex="1"><mxGeometry y="138" width="170" height="26" as="geometry"/></mxCell><mxCell id="527" style="edgeStyle=orthogonalEdgeStyle;rounded=0;orthogonalLoop=1;jettySize=auto;html=1;exitX=0.5;exitY=1;exitDx=0;exitDy=0;" parent="317" source="317" edge="1"><mxGeometry relative="1" as="geometry"><mxPoint x="79.99999999999977" y="164" as="targetPoint"/></mxGeometry></mxCell><mxCell id="519" value="+ distanceSquared(Point, Point): int &lt;&lt;static&gt;&gt;" style="text;strokeColor=none;fillColor=none;align=left;verticalAlign=top;spacingLeft=4;spacingRight=4;overflow=hidden;rotatable=0;points=[[0,0.5],[1,0.5]];portConstraint=eastwest;" parent="317" vertex="1"><mxGeometry y="164" width="170" height="30" as="geometry"/></mxCell><mxCell id="814" style="edgeStyle=orthogonalEdgeStyle;rounded=0;orthogonalLoop=1;jettySize=auto;html=1;exitX=0.5;exitY=0;exitDx=0;exitDy=0;entryX=0.5;entryY=0;entryDx=0;entryDy=0;" parent="1" source="332" target="336" edge="1"><mxGeometry relative="1" as="geometry"/></mxCell><mxCell id="332" value="VirtualWorld" style="swimlane;fontStyle=1;align=center;verticalAlign=top;childLayout=stackLayout;horizontal=1;startSize=26;horizontalStack=0;resizeParent=1;resizeParentMax=0;resizeLast=0;collapsible=1;marginBottom=0;" parent="1" vertex="1"><mxGeometry x="330" y="350" width="410" height="964" as="geometry"><mxRectangle x="-320" y="250" width="110" height="40" as="alternateBounds"/></mxGeometry></mxCell><mxCell id="333" value="- AGRS: String[] &lt;&lt;static&gt;&gt;" style="text;strokeColor=none;fillColor=none;align=left;verticalAlign=top;spacingLeft=4;spacingRight=4;overflow=hidden;rotatable=0;points=[[0,0.5],[1,0.5]];portConstraint=eastwest;" parent="332" vertex="1"><mxGeometry y="26" width="410" height="26" as="geometry"/></mxCell><mxCell id="360" value="+ VIEW_WIDTH: int &lt;&lt;static&gt;&gt;" style="text;strokeColor=none;fillColor=none;align=left;verticalAlign=top;spacingLeft=4;spacingRight=4;overflow=hidden;rotatable=0;points=[[0,0.5],[1,0.5]];portConstraint=eastwest;" parent="332" vertex="1"><mxGeometry y="52" width="410" height="26" as="geometry"/></mxCell><mxCell id="361" value="+ VIEW_HEIGHT: int &lt;&lt;static&gt;&gt;" style="text;strokeColor=none;fillColor=none;align=left;verticalAlign=top;spacingLeft=4;spacingRight=4;overflow=hidden;rotatable=0;points=[[0,0.5],[1,0.5]];portConstraint=eastwest;" parent="332" vertex="1"><mxGeometry y="78" width="410" height="26" as="geometry"/></mxCell><mxCell id="362" value="+ TILE_WIDTH: int &lt;&lt;static&gt;&gt;" style="text;strokeColor=none;fillColor=none;align=left;verticalAlign=top;spacingLeft=4;spacingRight=4;overflow=hidden;rotatable=0;points=[[0,0.5],[1,0.5]];portConstraint=eastwest;" parent="332" vertex="1"><mxGeometry y="104" width="410" height="26" as="geometry"/></mxCell><mxCell id="363" value="+ TILE_HEIGHT: int &lt;&lt;static&gt;&gt;" style="text;strokeColor=none;fillColor=none;align=left;verticalAlign=top;spacingLeft=4;spacingRight=4;overflow=hidden;rotatable=0;points=[[0,0.5],[1,0.5]];portConstraint=eastwest;" parent="332" vertex="1"><mxGeometry y="130" width="410" height="26" as="geometry"/></mxCell><mxCell id="367" value="+ VIEW_COLS: int &lt;&lt;static&gt;&gt;" style="text;strokeColor=none;fillColor=none;align=left;verticalAlign=top;spacingLeft=4;spacingRight=4;overflow=hidden;rotatable=0;points=[[0,0.5],[1,0.5]];portConstraint=eastwest;" parent="332" vertex="1"><mxGeometry y="156" width="410" height="26" as="geometry"/></mxCell><mxCell id="366" value="+ VIEW_ROWS: int &lt;&lt;static&gt;&gt;" style="text;strokeColor=none;fillColor=none;align=left;verticalAlign=top;spacingLeft=4;spacingRight=4;overflow=hidden;rotatable=0;points=[[0,0.5],[1,0.5]];portConstraint=eastwest;" parent="332" vertex="1"><mxGeometry y="182" width="410" height="26" as="geometry"/></mxCell><mxCell id="368" value="+ IMAGE_LIST_FILE_NAME: String &lt;&lt;static&gt;&gt;" style="text;strokeColor=none;fillColor=none;align=left;verticalAlign=top;spacingLeft=4;spacingRight=4;overflow=hidden;rotatable=0;points=[[0,0.5],[1,0.5]];portConstraint=eastwest;" parent="332" vertex="1"><mxGeometry y="208" width="410" height="26" as="geometry"/></mxCell><mxCell id="369" value="+ DEFAULT_IMAGE_NAME: String &lt;&lt;static&gt;&gt;" style="text;strokeColor=none;fillColor=none;align=left;verticalAlign=top;spacingLeft=4;spacingRight=4;overflow=hidden;rotatable=0;points=[[0,0.5],[1,0.5]];portConstraint=eastwest;" parent="332" vertex="1"><mxGeometry y="234" width="410" height="26" as="geometry"/></mxCell><mxCell id="370" value="+ DEFAULT_IMAGE_COLOR: int &lt;&lt;static&gt;&gt;" style="text;strokeColor=none;fillColor=none;align=left;verticalAlign=top;spacingLeft=4;spacingRight=4;overflow=hidden;rotatable=0;points=[[0,0.5],[1,0.5]];portConstraint=eastwest;" parent="332" vertex="1"><mxGeometry y="260" width="410" height="26" as="geometry"/></mxCell><mxCell id="371" value="+ FAST_FLAG: int &lt;&lt;static&gt;&gt;" style="text;strokeColor=none;fillColor=none;align=left;verticalAlign=top;spacingLeft=4;spacingRight=4;overflow=hidden;rotatable=0;points=[[0,0.5],[1,0.5]];portConstraint=eastwest;" parent="332" vertex="1"><mxGeometry y="286" width="410" height="26" as="geometry"/></mxCell><mxCell id="372" value="+ FASTER_FLAG: String &lt;&lt;static&gt;&gt;" style="text;strokeColor=none;fillColor=none;align=left;verticalAlign=top;spacingLeft=4;spacingRight=4;overflow=hidden;rotatable=0;points=[[0,0.5],[1,0.5]];portConstraint=eastwest;" parent="332" vertex="1"><mxGeometry y="312" width="410" height="26" as="geometry"/></mxCell><mxCell id="373" value="+ FASTEST_FLAG: String &lt;&lt;static&gt;&gt;" style="text;strokeColor=none;fillColor=none;align=left;verticalAlign=top;spacingLeft=4;spacingRight=4;overflow=hidden;rotatable=0;points=[[0,0.5],[1,0.5]];portConstraint=eastwest;" parent="332" vertex="1"><mxGeometry y="338" width="410" height="26" as="geometry"/></mxCell><mxCell id="374" value="+ FAST_SCALE: double &lt;&lt;static&gt;&gt;" style="text;strokeColor=none;fillColor=none;align=left;verticalAlign=top;spacingLeft=4;spacingRight=4;overflow=hidden;rotatable=0;points=[[0,0.5],[1,0.5]];portConstraint=eastwest;" parent="332" vertex="1"><mxGeometry y="364" width="410" height="26" as="geometry"/></mxCell><mxCell id="375" value="+ FASTER_SCALE: double &lt;&lt;static&gt;&gt;" style="text;strokeColor=none;fillColor=none;align=left;verticalAlign=top;spacingLeft=4;spacingRight=4;overflow=hidden;rotatable=0;points=[[0,0.5],[1,0.5]];portConstraint=eastwest;" parent="332" vertex="1"><mxGeometry y="390" width="410" height="26" as="geometry"/></mxCell><mxCell id="376" value="+ FASTEST_SCALE: double &lt;&lt;static&gt;&gt;" style="text;strokeColor=none;fillColor=none;align=left;verticalAlign=top;spacingLeft=4;spacingRight=4;overflow=hidden;rotatable=0;points=[[0,0.5],[1,0.5]];portConstraint=eastwest;" parent="332" vertex="1"><mxGeometry y="416" width="410" height="26" as="geometry"/></mxCell><mxCell id="377" value="+ loadFile: String" style="text;strokeColor=none;fillColor=none;align=left;verticalAlign=top;spacingLeft=4;spacingRight=4;overflow=hidden;rotatable=0;points=[[0,0.5],[1,0.5]];portConstraint=eastwest;" parent="332" vertex="1"><mxGeometry y="442" width="410" height="26" as="geometry"/></mxCell><mxCell id="378" value="+ startTimeMillis: long " style="text;strokeColor=none;fillColor=none;align=left;verticalAlign=top;spacingLeft=4;spacingRight=4;overflow=hidden;rotatable=0;points=[[0,0.5],[1,0.5]];portConstraint=eastwest;" parent="332" vertex="1"><mxGeometry y="468" width="410" height="26" as="geometry"/></mxCell><mxCell id="379" value="+ timeScale: double " style="text;strokeColor=none;fillColor=none;align=left;verticalAlign=top;spacingLeft=4;spacingRight=4;overflow=hidden;rotatable=0;points=[[0,0.5],[1,0.5]];portConstraint=eastwest;" parent="332" vertex="1"><mxGeometry y="494" width="410" height="26" as="geometry"/></mxCell><mxCell id="380" value="+ imageStore: ImageStore" style="text;strokeColor=none;fillColor=none;align=left;verticalAlign=top;spacingLeft=4;spacingRight=4;overflow=hidden;rotatable=0;points=[[0,0.5],[1,0.5]];portConstraint=eastwest;" parent="332" vertex="1"><mxGeometry y="520" width="410" height="26" as="geometry"/></mxCell><mxCell id="381" value="+ world: WorldModel" style="text;strokeColor=none;fillColor=none;align=left;verticalAlign=top;spacingLeft=4;spacingRight=4;overflow=hidden;rotatable=0;points=[[0,0.5],[1,0.5]];portConstraint=eastwest;" parent="332" vertex="1"><mxGeometry y="546" width="410" height="26" as="geometry"/></mxCell><mxCell id="382" value="+ view: WorldView" style="text;strokeColor=none;fillColor=none;align=left;verticalAlign=top;spacingLeft=4;spacingRight=4;overflow=hidden;rotatable=0;points=[[0,0.5],[1,0.5]];portConstraint=eastwest;" parent="332" vertex="1"><mxGeometry y="572" width="410" height="26" as="geometry"/></mxCell><mxCell id="383" value="+ scheduler: EventScheduler" style="text;strokeColor=none;fillColor=none;align=left;verticalAlign=top;spacingLeft=4;spacingRight=4;overflow=hidden;rotatable=0;points=[[0,0.5],[1,0.5]];portConstraint=eastwest;" parent="332" vertex="1"><mxGeometry y="598" width="410" height="26" as="geometry"/></mxCell><mxCell id="334" value="" style="line;strokeWidth=1;fillColor=none;align=left;verticalAlign=middle;spacingTop=-1;spacingLeft=3;spacingRight=3;rotatable=0;labelPosition=right;points=[];portConstraint=eastwest;strokeColor=inherit;" parent="332" vertex="1"><mxGeometry y="624" width="410" height="8" as="geometry"/></mxCell><mxCell id="335" value="+ settings(): void" style="text;strokeColor=none;fillColor=none;align=left;verticalAlign=top;spacingLeft=4;spacingRight=4;overflow=hidden;rotatable=0;points=[[0,0.5],[1,0.5]];portConstraint=eastwest;" parent="332" vertex="1"><mxGeometry y="632" width="410" height="26" as="geometry"/></mxCell><mxCell id="384" value="+ draw(): void" style="text;strokeColor=none;fillColor=none;align=left;verticalAlign=top;spacingLeft=4;spacingRight=4;overflow=hidden;rotatable=0;points=[[0,0.5],[1,0.5]];portConstraint=eastwest;" parent="332" vertex="1"><mxGeometry y="658" width="410" height="26" as="geometry"/></mxCell><mxCell id="385" value="+ update(double): void" style="text;strokeColor=none;fillColor=none;align=left;verticalAlign=top;spacingLeft=4;spacingRight=4;overflow=hidden;rotatable=0;points=[[0,0.5],[1,0.5]];portConstraint=eastwest;" parent="332" vertex="1"><mxGeometry y="684" width="410" height="26" as="geometry"/></mxCell><mxCell id="386" value="+ mousePressed(): void" style="text;strokeColor=none;fillColor=none;align=left;verticalAlign=top;spacingLeft=4;spacingRight=4;overflow=hidden;rotatable=0;points=[[0,0.5],[1,0.5]];portConstraint=eastwest;" parent="332" vertex="1"><mxGeometry y="710" width="410" height="26" as="geometry"/></mxCell><mxCell id="387" value="+ scheduleActions(WorldModel, EventScheduler, ImageStore): void" style="text;strokeColor=none;fillColor=none;align=left;verticalAlign=top;spacingLeft=4;spacingRight=4;overflow=hidden;rotatable=0;points=[[0,0.5],[1,0.5]];portConstraint=eastwest;" parent="332" vertex="1"><mxGeometry y="736" width="410" height="30" as="geometry"/></mxCell><mxCell id="389" value="- mouseToPoint(): Point" style="text;strokeColor=none;fillColor=none;align=left;verticalAlign=top;spacingLeft=4;spacingRight=4;overflow=hidden;rotatable=0;points=[[0,0.5],[1,0.5]];portConstraint=eastwest;" parent="332" vertex="1"><mxGeometry y="766" width="410" height="22" as="geometry"/></mxCell><mxCell id="390" value="+ keyPressed(): void" style="text;strokeColor=none;fillColor=none;align=left;verticalAlign=top;spacingLeft=4;spacingRight=4;overflow=hidden;rotatable=0;points=[[0,0.5],[1,0.5]];portConstraint=eastwest;" parent="332" vertex="1"><mxGeometry y="788" width="410" height="22" as="geometry"/></mxCell><mxCell id="391" value="+ createDefaultBackground(ImageStore): Background &lt;&lt;static&gt;&gt;" style="text;strokeColor=none;fillColor=none;align=left;verticalAlign=top;spacingLeft=4;spacingRight=4;overflow=hidden;rotatable=0;points=[[0,0.5],[1,0.5]];portConstraint=eastwest;" parent="332" vertex="1"><mxGeometry y="810" width="410" height="22" as="geometry"/></mxCell><mxCell id="392" value="+ createImageColored(int, int. int): PImage &lt;&lt;static&gt;&gt;" style="text;strokeColor=none;fillColor=none;align=left;verticalAlign=top;spacingLeft=4;spacingRight=4;overflow=hidden;rotatable=0;points=[[0,0.5],[1,0.5]];portConstraint=eastwest;" parent="332" vertex="1"><mxGeometry y="832" width="410" height="22" as="geometry"/></mxCell><mxCell id="393" value="+ loadImages(String): void" style="text;strokeColor=none;fillColor=none;align=left;verticalAlign=top;spacingLeft=4;spacingRight=4;overflow=hidden;rotatable=0;points=[[0,0.5],[1,0.5]];portConstraint=eastwest;" parent="332" vertex="1"><mxGeometry y="854" width="410" height="22" as="geometry"/></mxCell><mxCell id="394" value="+ loadWorld(String, ImageStore): void" style="text;strokeColor=none;fillColor=none;align=left;verticalAlign=top;spacingLeft=4;spacingRight=4;overflow=hidden;rotatable=0;points=[[0,0.5],[1,0.5]];portConstraint=eastwest;" parent="332" vertex="1"><mxGeometry y="876" width="410" height="22" as="geometry"/></mxCell><mxCell id="395" value="+ parseCommandLine(String[]): void" style="text;strokeColor=none;fillColor=none;align=left;verticalAlign=top;spacingLeft=4;spacingRight=4;overflow=hidden;rotatable=0;points=[[0,0.5],[1,0.5]];portConstraint=eastwest;" parent="332" vertex="1"><mxGeometry y="898" width="410" height="22" as="geometry"/></mxCell><mxCell id="396" value="+ main(String[]): void &lt;&lt;static&gt;&gt;" style="text;strokeColor=none;fillColor=none;align=left;verticalAlign=top;spacingLeft=4;spacingRight=4;overflow=hidden;rotatable=0;points=[[0,0.5],[1,0.5]];portConstraint=eastwest;" parent="332" vertex="1"><mxGeometry y="920" width="410" height="22" as="geometry"/></mxCell><mxCell id="397" value="+ headlessMain(String[], double): List&lt;String&gt; &lt;&lt;static&gt;&gt;" style="text;strokeColor=none;fillColor=none;align=left;verticalAlign=top;spacingLeft=4;spacingRight=4;overflow=hidden;rotatable=0;points=[[0,0.5],[1,0.5]];portConstraint=eastwest;" parent="332" vertex="1"><mxGeometry y="942" width="410" height="22" as="geometry"/></mxCell><mxCell id="336" value="WorldModel" style="swimlane;fontStyle=1;align=center;verticalAlign=top;childLayout=stackLayout;horizontal=1;startSize=26;horizontalStack=0;resizeParent=1;resizeParentMax=0;resizeLast=0;collapsible=1;marginBottom=0;" parent="1" vertex="1"><mxGeometry x="-660" y="520" width="370" height="698" as="geometry"><mxRectangle x="-640" y="1840" width="110" height="30" as="alternateBounds"/></mxGeometry></mxCell><mxCell id="337" value="+ numRows: int" style="text;strokeColor=none;fillColor=none;align=left;verticalAlign=top;spacingLeft=4;spacingRight=4;overflow=hidden;rotatable=0;points=[[0,0.5],[1,0.5]];portConstraint=eastwest;" parent="336" vertex="1"><mxGeometry y="26" width="370" height="26" as="geometry"/></mxCell><mxCell id="340" value="+ numCols: int" style="text;strokeColor=none;fillColor=none;align=left;verticalAlign=top;spacingLeft=4;spacingRight=4;overflow=hidden;rotatable=0;points=[[0,0.5],[1,0.5]];portConstraint=eastwest;" parent="336" vertex="1"><mxGeometry y="52" width="370" height="26" as="geometry"/></mxCell><mxCell id="341" value="+ background: Background[][]" style="text;strokeColor=none;fillColor=none;align=left;verticalAlign=top;spacingLeft=4;spacingRight=4;overflow=hidden;rotatable=0;points=[[0,0.5],[1,0.5]];portConstraint=eastwest;" parent="336" vertex="1"><mxGeometry y="78" width="370" height="32" as="geometry"/></mxCell><mxCell id="350" value="+ occupancy: Entity[][]" style="text;strokeColor=none;fillColor=none;align=left;verticalAlign=top;spacingLeft=4;spacingRight=4;overflow=hidden;rotatable=0;points=[[0,0.5],[1,0.5]];portConstraint=eastwest;" parent="336" vertex="1"><mxGeometry y="110" width="370" height="32" as="geometry"/></mxCell><mxCell id="351" value="+ entities: Set&lt;Entity&gt;" style="text;strokeColor=none;fillColor=none;align=left;verticalAlign=top;spacingLeft=4;spacingRight=4;overflow=hidden;rotatable=0;points=[[0,0.5],[1,0.5]];portConstraint=eastwest;" parent="336" vertex="1"><mxGeometry y="142" width="370" height="32" as="geometry"/></mxCell><mxCell id="586" value="+ PROPERTY_KEY: int &lt;&lt;static&gt;&gt;" style="text;strokeColor=none;fillColor=none;align=left;verticalAlign=top;spacingLeft=4;spacingRight=4;overflow=hidden;rotatable=0;points=[[0,0.5],[1,0.5]];portConstraint=eastwest;" parent="336" vertex="1"><mxGeometry y="174" width="370" height="32" as="geometry"/></mxCell><mxCell id="587" value="+ PROPERTY_ID: int &lt;&lt;static&gt;&gt;" style="text;strokeColor=none;fillColor=none;align=left;verticalAlign=top;spacingLeft=4;spacingRight=4;overflow=hidden;rotatable=0;points=[[0,0.5],[1,0.5]];portConstraint=eastwest;" parent="336" vertex="1"><mxGeometry y="206" width="370" height="32" as="geometry"/></mxCell><mxCell id="588" value="+ PROPERTY_COL: int &lt;&lt;static&gt;&gt;" style="text;strokeColor=none;fillColor=none;align=left;verticalAlign=top;spacingLeft=4;spacingRight=4;overflow=hidden;rotatable=0;points=[[0,0.5],[1,0.5]];portConstraint=eastwest;" parent="336" vertex="1"><mxGeometry y="238" width="370" height="32" as="geometry"/></mxCell><mxCell id="589" value="+ PROPERTY_ROW: int &lt;&lt;static&gt;&gt;" style="text;strokeColor=none;fillColor=none;align=left;verticalAlign=top;spacingLeft=4;spacingRight=4;overflow=hidden;rotatable=0;points=[[0,0.5],[1,0.5]];portConstraint=eastwest;" parent="336" vertex="1"><mxGeometry y="270" width="370" height="32" as="geometry"/></mxCell><mxCell id="590" value="+ ENTITY_NUM_PROPERTIES: int &lt;&lt;static&gt;&gt;" style="text;strokeColor=none;fillColor=none;align=left;verticalAlign=top;spacingLeft=4;spacingRight=4;overflow=hidden;rotatable=0;points=[[0,0.5],[1,0.5]];portConstraint=eastwest;" parent="336" vertex="1"><mxGeometry y="302" width="370" height="32" as="geometry"/></mxCell><mxCell id="338" value="" style="line;strokeWidth=1;fillColor=none;align=left;verticalAlign=middle;spacingTop=-1;spacingLeft=3;spacingRight=3;rotatable=0;labelPosition=right;points=[];portConstraint=eastwest;strokeColor=inherit;" parent="336" vertex="1"><mxGeometry y="334" width="370" height="8" as="geometry"/></mxCell><mxCell id="339" value="+ log(): List&lt;String&gt;" style="text;strokeColor=none;fillColor=none;align=left;verticalAlign=top;spacingLeft=4;spacingRight=4;overflow=hidden;rotatable=0;points=[[0,0.5],[1,0.5]];portConstraint=eastwest;" parent="336" vertex="1"><mxGeometry y="342" width="370" height="26" as="geometry"/></mxCell><mxCell id="513" value="+ withinbounds(WorldModel, Point): boolean &lt;&lt;static&gt;&gt;" style="text;strokeColor=none;fillColor=none;align=left;verticalAlign=top;spacingLeft=4;spacingRight=4;overflow=hidden;rotatable=0;points=[[0,0.5],[1,0.5]];portConstraint=eastwest;" parent="336" vertex="1"><mxGeometry y="368" width="370" height="30" as="geometry"/></mxCell><mxCell id="515" value="+ isOccupied(WorldModel, Points): boolean &lt;&lt;static&gt;&gt;" style="text;strokeColor=none;fillColor=none;align=left;verticalAlign=top;spacingLeft=4;spacingRight=4;overflow=hidden;rotatable=0;points=[[0,0.5],[1,0.5]];portConstraint=eastwest;" parent="336" vertex="1"><mxGeometry y="398" width="370" height="30" as="geometry"/></mxCell><mxCell id="535" value="+ getOccupant(WorldModel, Point): Optional&lt;Entity&gt; &lt;&lt;static&gt;&gt;" style="text;strokeColor=none;fillColor=none;align=left;verticalAlign=top;spacingLeft=4;spacingRight=4;overflow=hidden;rotatable=0;points=[[0,0.5],[1,0.5]];portConstraint=eastwest;" parent="336" vertex="1"><mxGeometry y="428" width="370" height="30" as="geometry"/></mxCell><mxCell id="536" value="+ getOccupancyCell(WorldModel, Point): Entity &lt;&lt;static&gt;&gt;" style="text;strokeColor=none;fillColor=none;align=left;verticalAlign=top;spacingLeft=4;spacingRight=4;overflow=hidden;rotatable=0;points=[[0,0.5],[1,0.5]];portConstraint=eastwest;" parent="336" vertex="1"><mxGeometry y="458" width="370" height="30" as="geometry"/></mxCell><mxCell id="537" value="+ setOccupancyCell(WorldMOdel, Point, Entity): void &lt;&lt;static&gt;&gt;" style="text;strokeColor=none;fillColor=none;align=left;verticalAlign=top;spacingLeft=4;spacingRight=4;overflow=hidden;rotatable=0;points=[[0,0.5],[1,0.5]];portConstraint=eastwest;" parent="336" vertex="1"><mxGeometry y="488" width="370" height="30" as="geometry"/></mxCell><mxCell id="551" value="+ load(WorldModel, Scanner, ImageStore, background): void &lt;&lt;static&gt;&gt;" style="text;strokeColor=none;fillColor=none;align=left;verticalAlign=top;spacingLeft=4;spacingRight=4;overflow=hidden;rotatable=0;points=[[0,0.5],[1,0.5]];portConstraint=eastwest;" parent="336" vertex="1"><mxGeometry y="518" width="370" height="30" as="geometry"/></mxCell><mxCell id="552" value="+ parseSaveFile(WorldModel, Scanner, ImageStore, Background): void &lt;&lt;static&gt;&gt;" style="text;strokeColor=none;fillColor=none;align=left;verticalAlign=top;spacingLeft=4;spacingRight=4;overflow=hidden;rotatable=0;points=[[0,0.5],[1,0.5]];portConstraint=eastwest;" parent="336" vertex="1"><mxGeometry y="548" width="370" height="30" as="geometry"/></mxCell><mxCell id="553" value="+ parseBackgroundRow(WorldModel, String, int, ImageStore): void &lt;&lt;static&gt;&gt;" style="text;strokeColor=none;fillColor=none;align=left;verticalAlign=top;spacingLeft=4;spacingRight=4;overflow=hidden;rotatable=0;points=[[0,0.5],[1,0.5]];portConstraint=eastwest;" parent="336" vertex="1"><mxGeometry y="578" width="370" height="30" as="geometry"/></mxCell><mxCell id="557" value="+ getBackgroundCell(WorldModel, Point): Background &lt;&lt;static&gt;&gt;" style="text;strokeColor=none;fillColor=none;align=left;verticalAlign=top;spacingLeft=4;spacingRight=4;overflow=hidden;rotatable=0;points=[[0,0.5],[1,0.5]];portConstraint=eastwest;" parent="336" vertex="1"><mxGeometry y="608" width="370" height="30" as="geometry"/></mxCell><mxCell id="555" value="+ parseEntity(WorldModel, String, ImageStore): void &lt;&lt;static&gt;&gt;" style="text;strokeColor=none;fillColor=none;align=left;verticalAlign=top;spacingLeft=4;spacingRight=4;overflow=hidden;rotatable=0;points=[[0,0.5],[1,0.5]];portConstraint=eastwest;" parent="336" vertex="1"><mxGeometry y="638" width="370" height="30" as="geometry"/></mxCell><mxCell id="559" value="+ setBackgroundCell(WorldModel, Point, Background): void &lt;&lt;static&gt;&gt;" style="text;strokeColor=none;fillColor=none;align=left;verticalAlign=top;spacingLeft=4;spacingRight=4;overflow=hidden;rotatable=0;points=[[0,0.5],[1,0.5]];portConstraint=eastwest;" parent="336" vertex="1"><mxGeometry y="668" width="370" height="30" as="geometry"/></mxCell><mxCell id="800" style="edgeStyle=orthogonalEdgeStyle;rounded=0;orthogonalLoop=1;jettySize=auto;html=1;exitX=0.5;exitY=0;exitDx=0;exitDy=0;entryX=0.5;entryY=0;entryDx=0;entryDy=0;" parent="1" source="416" target="336" edge="1"><mxGeometry relative="1" as="geometry"/></mxCell><mxCell id="416" value="Viewport" style="swimlane;fontStyle=1;align=center;verticalAlign=top;childLayout=stackLayout;horizontal=1;startSize=26;horizontalStack=0;resizeParent=1;resizeParentMax=0;resizeLast=0;collapsible=1;marginBottom=0;" parent="1" vertex="1"><mxGeometry y="1740" width="440" height="258" as="geometry"><mxRectangle x="-310" y="460" width="90" height="30" as="alternateBounds"/></mxGeometry></mxCell><mxCell id="417" value="+ row: int " style="text;strokeColor=none;fillColor=none;align=left;verticalAlign=top;spacingLeft=4;spacingRight=4;overflow=hidden;rotatable=0;points=[[0,0.5],[1,0.5]];portConstraint=eastwest;" parent="416" vertex="1"><mxGeometry y="26" width="440" height="26" as="geometry"/></mxCell><mxCell id="418" value="+ col: int" style="text;strokeColor=none;fillColor=none;align=left;verticalAlign=top;spacingLeft=4;spacingRight=4;overflow=hidden;rotatable=0;points=[[0,0.5],[1,0.5]];portConstraint=eastwest;" parent="416" vertex="1"><mxGeometry y="52" width="440" height="26" as="geometry"/></mxCell><mxCell id="419" value="+ numRows: int" style="text;strokeColor=none;fillColor=none;align=left;verticalAlign=top;spacingLeft=4;spacingRight=4;overflow=hidden;rotatable=0;points=[[0,0.5],[1,0.5]];portConstraint=eastwest;" parent="416" vertex="1"><mxGeometry y="78" width="440" height="26" as="geometry"/></mxCell><mxCell id="420" value="+numCols: int" style="text;strokeColor=none;fillColor=none;align=left;verticalAlign=top;spacingLeft=4;spacingRight=4;overflow=hidden;rotatable=0;points=[[0,0.5],[1,0.5]];portConstraint=eastwest;" parent="416" vertex="1"><mxGeometry y="104" width="440" height="26" as="geometry"/></mxCell><mxCell id="421" value="" style="line;strokeWidth=1;fillColor=none;align=left;verticalAlign=middle;spacingTop=-1;spacingLeft=3;spacingRight=3;rotatable=0;labelPosition=right;points=[];portConstraint=eastwest;strokeColor=inherit;" parent="416" vertex="1"><mxGeometry y="130" width="440" height="8" as="geometry"/></mxCell><mxCell id="561" value="+ viewportToWorld(ViewPort, int, int): Point &lt;&lt;static&gt;&gt;" style="text;strokeColor=none;fillColor=none;align=left;verticalAlign=top;spacingLeft=4;spacingRight=4;overflow=hidden;rotatable=0;points=[[0,0.5],[1,0.5]];portConstraint=eastwest;" parent="416" vertex="1"><mxGeometry y="138" width="440" height="30" as="geometry"/></mxCell><mxCell id="562" value="+ worldToViewport(Viewport, int, int): Point &lt;&lt;static&gt;&gt;" style="text;strokeColor=none;fillColor=none;align=left;verticalAlign=top;spacingLeft=4;spacingRight=4;overflow=hidden;rotatable=0;points=[[0,0.5],[1,0.5]];portConstraint=eastwest;" parent="416" vertex="1"><mxGeometry y="168" width="440" height="30" as="geometry"/></mxCell><mxCell id="572" value="+ shift(Viewport, int, int): void &lt;&lt;static&gt;&gt;" style="text;strokeColor=none;fillColor=none;align=left;verticalAlign=top;spacingLeft=4;spacingRight=4;overflow=hidden;rotatable=0;points=[[0,0.5],[1,0.5]];portConstraint=eastwest;" parent="416" vertex="1"><mxGeometry y="198" width="440" height="30" as="geometry"/></mxCell><mxCell id="573" value="+ contains(Viewport, Point): boolean &lt;&lt;static&gt;&gt;" style="text;strokeColor=none;fillColor=none;align=left;verticalAlign=top;spacingLeft=4;spacingRight=4;overflow=hidden;rotatable=0;points=[[0,0.5],[1,0.5]];portConstraint=eastwest;" parent="416" vertex="1"><mxGeometry y="228" width="440" height="30" as="geometry"/></mxCell><mxCell id="799" style="edgeStyle=orthogonalEdgeStyle;rounded=0;orthogonalLoop=1;jettySize=auto;html=1;exitX=0.5;exitY=0;exitDx=0;exitDy=0;entryX=1;entryY=0.5;entryDx=0;entryDy=0;" parent="1" source="457" target="613" edge="1"><mxGeometry relative="1" as="geometry"/></mxCell><mxCell id="457" value="Action" style="swimlane;fontStyle=1;align=center;verticalAlign=top;childLayout=stackLayout;horizontal=1;startSize=26;horizontalStack=0;resizeParent=1;resizeParentMax=0;resizeLast=0;collapsible=1;marginBottom=0;" parent="1" vertex="1"><mxGeometry y="1370" width="550" height="300" as="geometry"/></mxCell><mxCell id="458" value="+ kind: ActionKind" style="text;strokeColor=none;fillColor=none;align=left;verticalAlign=top;spacingLeft=4;spacingRight=4;overflow=hidden;rotatable=0;points=[[0,0.5],[1,0.5]];portConstraint=eastwest;" parent="457" vertex="1"><mxGeometry y="26" width="550" height="26" as="geometry"/></mxCell><mxCell id="461" value="+ entity: Entity" style="text;strokeColor=none;fillColor=none;align=left;verticalAlign=top;spacingLeft=4;spacingRight=4;overflow=hidden;rotatable=0;points=[[0,0.5],[1,0.5]];portConstraint=eastwest;" parent="457" vertex="1"><mxGeometry y="52" width="550" height="26" as="geometry"/></mxCell><mxCell id="462" value="+ world: WorldModel" style="text;strokeColor=none;fillColor=none;align=left;verticalAlign=top;spacingLeft=4;spacingRight=4;overflow=hidden;rotatable=0;points=[[0,0.5],[1,0.5]];portConstraint=eastwest;" parent="457" vertex="1"><mxGeometry y="78" width="550" height="26" as="geometry"/></mxCell><mxCell id="463" value="+ imageStore: ImageStore" style="text;strokeColor=none;fillColor=none;align=left;verticalAlign=top;spacingLeft=4;spacingRight=4;overflow=hidden;rotatable=0;points=[[0,0.5],[1,0.5]];portConstraint=eastwest;" parent="457" vertex="1"><mxGeometry y="104" width="550" height="26" as="geometry"/></mxCell><mxCell id="464" value="+ repeatCount: int " style="text;strokeColor=none;fillColor=none;align=left;verticalAlign=top;spacingLeft=4;spacingRight=4;overflow=hidden;rotatable=0;points=[[0,0.5],[1,0.5]];portConstraint=eastwest;" parent="457" vertex="1"><mxGeometry y="130" width="550" height="26" as="geometry"/></mxCell><mxCell id="459" value="" style="line;strokeWidth=1;fillColor=none;align=left;verticalAlign=middle;spacingTop=-1;spacingLeft=3;spacingRight=3;rotatable=0;labelPosition=right;points=[];portConstraint=eastwest;strokeColor=inherit;" parent="457" vertex="1"><mxGeometry y="156" width="550" height="8" as="geometry"/></mxCell><mxCell id="460" value="+ executeAction(Action, EventScheduler): void &lt;&lt;static&gt;&gt;" style="text;strokeColor=none;fillColor=none;align=left;verticalAlign=top;spacingLeft=4;spacingRight=4;overflow=hidden;rotatable=0;points=[[0,0.5],[1,0.5]];portConstraint=eastwest;" parent="457" vertex="1"><mxGeometry y="164" width="550" height="16" as="geometry"/></mxCell><mxCell id="465" value="+ executeAnimationAction(Action, EventScheduler): void &lt;&lt;static&gt;&gt;" style="text;strokeColor=none;fillColor=none;align=left;verticalAlign=top;spacingLeft=4;spacingRight=4;overflow=hidden;rotatable=0;points=[[0,0.5],[1,0.5]];portConstraint=eastwest;" parent="457" vertex="1"><mxGeometry y="180" width="550" height="30" as="geometry"/></mxCell><mxCell id="467" value="+ executeActivityAction(ACtiona EventScheduler): void &lt;&lt;static&gt;&gt;" style="text;strokeColor=none;fillColor=none;align=left;verticalAlign=top;spacingLeft=4;spacingRight=4;overflow=hidden;rotatable=0;points=[[0,0.5],[1,0.5]];portConstraint=eastwest;" parent="457" vertex="1"><mxGeometry y="210" width="550" height="30" as="geometry"/></mxCell><mxCell id="539" value="+ createAnimationAction(Entity, int): Action &lt;&lt;static&gt;&gt;" style="text;strokeColor=none;fillColor=none;align=left;verticalAlign=top;spacingLeft=4;spacingRight=4;overflow=hidden;rotatable=0;points=[[0,0.5],[1,0.5]];portConstraint=eastwest;" parent="457" vertex="1"><mxGeometry y="240" width="550" height="30" as="geometry"/></mxCell><mxCell id="541" value="+ createActivityAction(Entity, WorldModel, ImageStore): Action &lt;&lt;static&gt;&gt;" style="text;strokeColor=none;fillColor=none;align=left;verticalAlign=top;spacingLeft=4;spacingRight=4;overflow=hidden;rotatable=0;points=[[0,0.5],[1,0.5]];portConstraint=eastwest;" parent="457" vertex="1"><mxGeometry y="270" width="550" height="30" as="geometry"/></mxCell><mxCell id="815" style="edgeStyle=orthogonalEdgeStyle;rounded=0;orthogonalLoop=1;jettySize=auto;html=1;exitX=0.5;exitY=0;exitDx=0;exitDy=0;entryX=0.5;entryY=0;entryDx=0;entryDy=0;" parent="1" source="488" target="16" edge="1"><mxGeometry relative="1" as="geometry"/></mxCell><mxCell id="488" value="EventScheduler" style="swimlane;fontStyle=1;align=center;verticalAlign=top;childLayout=stackLayout;horizontal=1;startSize=26;horizontalStack=0;resizeParent=1;resizeParentMax=0;resizeLast=0;collapsible=1;marginBottom=0;" parent="1" vertex="1"><mxGeometry x="-210" y="750" width="420" height="294" as="geometry"/></mxCell><mxCell id="64" value="+ eventQueue: PriorityQueue" style="text;strokeColor=none;fillColor=none;align=left;verticalAlign=top;spacingLeft=4;spacingRight=4;overflow=hidden;rotatable=0;points=[[0,0.5],[1,0.5]];portConstraint=eastwest;" parent="488" vertex="1"><mxGeometry y="26" width="420" height="26" as="geometry"/></mxCell><mxCell id="68" value="+ currentTime: double" style="text;strokeColor=none;fillColor=none;align=left;verticalAlign=top;spacingLeft=4;spacingRight=4;overflow=hidden;rotatable=0;points=[[0,0.5],[1,0.5]];portConstraint=eastwest;" parent="488" vertex="1"><mxGeometry y="52" width="420" height="26" as="geometry"/></mxCell><mxCell id="67" value="+ pendingEvents: Map&lt;Entitiy, list&lt;Event&gt;&gt;" style="text;strokeColor=none;fillColor=none;align=left;verticalAlign=top;spacingLeft=4;spacingRight=4;overflow=hidden;rotatable=0;points=[[0,0.5],[1,0.5]];portConstraint=eastwest;" parent="488" vertex="1"><mxGeometry y="78" width="420" height="26" as="geometry"/></mxCell><mxCell id="490" value="" style="line;strokeWidth=1;fillColor=none;align=left;verticalAlign=middle;spacingTop=-1;spacingLeft=3;spacingRight=3;rotatable=0;labelPosition=right;points=[];portConstraint=eastwest;strokeColor=inherit;" parent="488" vertex="1"><mxGeometry y="104" width="420" height="8" as="geometry"/></mxCell><mxCell id="491" value="+ scheduleEvent(EVentScheduler, Entity, Action, double): void &lt;&lt;static&gt;&gt;" style="text;strokeColor=none;fillColor=none;align=left;verticalAlign=top;spacingLeft=4;spacingRight=4;overflow=hidden;rotatable=0;points=[[0,0.5],[1,0.5]];portConstraint=eastwest;" parent="488" vertex="1"><mxGeometry y="112" width="420" height="38" as="geometry"/></mxCell><mxCell id="492" value="+ unschedulerAllEvent(EventScheduler, Entity): void &lt;&lt;static&gt;&gt;" style="text;strokeColor=none;fillColor=none;align=left;verticalAlign=top;spacingLeft=4;spacingRight=4;overflow=hidden;rotatable=0;points=[[0,0.5],[1,0.5]];portConstraint=eastwest;" parent="488" vertex="1"><mxGeometry y="150" width="420" height="38" as="geometry"/></mxCell><mxCell id="493" value="+removePendingEvent(EventScheduler, Event): void &lt;&lt;static&gt;&gt;" style="text;strokeColor=none;fillColor=none;align=left;verticalAlign=top;spacingLeft=4;spacingRight=4;overflow=hidden;rotatable=0;points=[[0,0.5],[1,0.5]];portConstraint=eastwest;" parent="488" vertex="1"><mxGeometry y="188" width="420" height="38" as="geometry"/></mxCell><mxCell id="494" value="+removePendingEvent(EventScheduler, Event): void &lt;&lt;static&gt;&gt;" style="text;strokeColor=none;fillColor=none;align=left;verticalAlign=top;spacingLeft=4;spacingRight=4;overflow=hidden;rotatable=0;points=[[0,0.5],[1,0.5]];portConstraint=eastwest;" parent="488" vertex="1"><mxGeometry y="226" width="420" height="38" as="geometry"/></mxCell><mxCell id="496" value="+ updateOnTime(EventScheduler, double time): void &lt;&lt;statoc&gt;&gt;" style="text;strokeColor=none;fillColor=none;align=left;verticalAlign=top;spacingLeft=4;spacingRight=4;overflow=hidden;rotatable=0;points=[[0,0.5],[1,0.5]];portConstraint=eastwest;" parent="488" vertex="1"><mxGeometry y="264" width="420" height="30" as="geometry"/></mxCell><mxCell id="817" style="edgeStyle=orthogonalEdgeStyle;rounded=0;orthogonalLoop=1;jettySize=auto;html=1;exitX=0.5;exitY=0;exitDx=0;exitDy=0;entryX=0.5;entryY=0;entryDx=0;entryDy=0;" parent="1" source="507" target="336" edge="1"><mxGeometry relative="1" as="geometry"/></mxCell><mxCell id="507" value="Background" style="swimlane;fontStyle=1;align=center;verticalAlign=top;childLayout=stackLayout;horizontal=1;startSize=26;horizontalStack=0;resizeParent=1;resizeParentMax=0;resizeLast=0;collapsible=1;marginBottom=0;" parent="1" vertex="1"><mxGeometry x="-180" y="2070" width="530" height="116" as="geometry"/></mxCell><mxCell id="306" value="+ images: List&lt;PImage&gt;" style="text;strokeColor=none;fillColor=none;align=left;verticalAlign=top;spacingLeft=4;spacingRight=4;overflow=hidden;rotatable=0;points=[[0,0.5],[1,0.5]];portConstraint=eastwest;" parent="507" vertex="1"><mxGeometry y="26" width="530" height="26" as="geometry"/></mxCell><mxCell id="305" value="+ imageIndex: int" style="text;strokeColor=none;fillColor=none;align=left;verticalAlign=top;spacingLeft=4;spacingRight=4;overflow=hidden;rotatable=0;points=[[0,0.5],[1,0.5]];portConstraint=eastwest;" parent="507" vertex="1"><mxGeometry y="52" width="530" height="26" as="geometry"/></mxCell><mxCell id="509" value="" style="line;strokeWidth=1;fillColor=none;align=left;verticalAlign=middle;spacingTop=-1;spacingLeft=3;spacingRight=3;rotatable=0;labelPosition=right;points=[];portConstraint=eastwest;strokeColor=inherit;" parent="507" vertex="1"><mxGeometry y="78" width="530" height="8" as="geometry"/></mxCell><mxCell id="556" value="+ getCurrentImage(Object): PImage &lt;&lt;static&gt;&gt;" style="text;strokeColor=none;fillColor=none;align=left;verticalAlign=top;spacingLeft=4;spacingRight=4;overflow=hidden;rotatable=0;points=[[0,0.5],[1,0.5]];portConstraint=eastwest;" parent="507" vertex="1"><mxGeometry y="86" width="530" height="30" as="geometry"/></mxCell><mxCell id="791" style="edgeStyle=orthogonalEdgeStyle;rounded=0;orthogonalLoop=1;jettySize=auto;html=1;exitX=0.5;exitY=0;exitDx=0;exitDy=0;entryX=0.482;entryY=1.3;entryDx=0;entryDy=0;entryPerimeter=0;" parent="1" source="563" target="559" edge="1"><mxGeometry relative="1" as="geometry"/></mxCell><mxCell id="563" value="WorldView" style="swimlane;fontStyle=1;align=center;verticalAlign=top;childLayout=stackLayout;horizontal=1;startSize=26;horizontalStack=0;resizeParent=1;resizeParentMax=0;resizeLast=0;collapsible=1;marginBottom=0;" parent="1" vertex="1"><mxGeometry x="-480" y="1350" width="310" height="344" as="geometry"/></mxCell><mxCell id="425" value="+ screen: PApplet" style="text;strokeColor=none;fillColor=none;align=left;verticalAlign=top;spacingLeft=4;spacingRight=4;overflow=hidden;rotatable=0;points=[[0,0.5],[1,0.5]];portConstraint=eastwest;" parent="563" vertex="1"><mxGeometry y="26" width="310" height="26" as="geometry"/></mxCell><mxCell id="427" value="+ tileWidth: int" style="text;strokeColor=none;fillColor=none;align=left;verticalAlign=top;spacingLeft=4;spacingRight=4;overflow=hidden;rotatable=0;points=[[0,0.5],[1,0.5]];portConstraint=eastwest;" parent="563" vertex="1"><mxGeometry y="52" width="310" height="26" as="geometry"/></mxCell><mxCell id="428" value="+ tileheight: int" style="text;strokeColor=none;fillColor=none;align=left;verticalAlign=top;spacingLeft=4;spacingRight=4;overflow=hidden;rotatable=0;points=[[0,0.5],[1,0.5]];portConstraint=eastwest;" parent="563" vertex="1"><mxGeometry y="78" width="310" height="26" as="geometry"/></mxCell><mxCell id="429" value="+ viewport: Viewport" style="text;strokeColor=none;fillColor=none;align=left;verticalAlign=top;spacingLeft=4;spacingRight=4;overflow=hidden;rotatable=0;points=[[0,0.5],[1,0.5]];portConstraint=eastwest;" parent="563" vertex="1"><mxGeometry y="104" width="310" height="26" as="geometry"/></mxCell><mxCell id="565" value="" style="line;strokeWidth=1;fillColor=none;align=left;verticalAlign=middle;spacingTop=-1;spacingLeft=3;spacingRight=3;rotatable=0;labelPosition=right;points=[];portConstraint=eastwest;strokeColor=inherit;" parent="563" vertex="1"><mxGeometry y="130" width="310" height="8" as="geometry"/></mxCell><mxCell id="566" value="+ method(type): type" style="text;strokeColor=none;fillColor=none;align=left;verticalAlign=top;spacingLeft=4;spacingRight=4;overflow=hidden;rotatable=0;points=[[0,0.5],[1,0.5]];portConstraint=eastwest;" parent="563" vertex="1"><mxGeometry y="138" width="310" height="26" as="geometry"/></mxCell><mxCell id="568" value="+ shiftView(WorldView, int, int): void &lt;&lt;static&gt;&gt;" style="text;strokeColor=none;fillColor=none;align=left;verticalAlign=top;spacingLeft=4;spacingRight=4;overflow=hidden;rotatable=0;points=[[0,0.5],[1,0.5]];portConstraint=eastwest;" parent="563" vertex="1"><mxGeometry y="164" width="310" height="30" as="geometry"/></mxCell><mxCell id="567" value="+ clamp(int, int, int): int &lt;&lt;static&gt;&gt;" style="text;strokeColor=none;fillColor=none;align=left;verticalAlign=top;spacingLeft=4;spacingRight=4;overflow=hidden;rotatable=0;points=[[0,0.5],[1,0.5]];portConstraint=eastwest;" parent="563" vertex="1"><mxGeometry y="194" width="310" height="30" as="geometry"/></mxCell><mxCell id="574" value="+ getBackgroundImage(WorldModel, Point): Optional&lt;PImage&gt; &lt;&lt;static&gt;&gt;" style="text;strokeColor=none;fillColor=none;align=left;verticalAlign=top;spacingLeft=4;spacingRight=4;overflow=hidden;rotatable=0;points=[[0,0.5],[1,0.5]];portConstraint=eastwest;" parent="563" vertex="1"><mxGeometry y="224" width="310" height="30" as="geometry"/></mxCell><mxCell id="575" value="+ drawBackground(Worldview): void &lt;&lt;static&gt;&gt;" style="text;strokeColor=none;fillColor=none;align=left;verticalAlign=top;spacingLeft=4;spacingRight=4;overflow=hidden;rotatable=0;points=[[0,0.5],[1,0.5]];portConstraint=eastwest;" parent="563" vertex="1"><mxGeometry y="254" width="310" height="30" as="geometry"/></mxCell><mxCell id="576" value="+ drawEntities(WorldView): void &lt;&lt;static&gt;&gt;" style="text;strokeColor=none;fillColor=none;align=left;verticalAlign=top;spacingLeft=4;spacingRight=4;overflow=hidden;rotatable=0;points=[[0,0.5],[1,0.5]];portConstraint=eastwest;" parent="563" vertex="1"><mxGeometry y="284" width="310" height="30" as="geometry"/></mxCell><mxCell id="577" value="+ drawViewport(WorldView): void &lt;&lt;static&gt;&gt;" style="text;strokeColor=none;fillColor=none;align=left;verticalAlign=top;spacingLeft=4;spacingRight=4;overflow=hidden;rotatable=0;points=[[0,0.5],[1,0.5]];portConstraint=eastwest;" parent="563" vertex="1"><mxGeometry y="314" width="310" height="30" as="geometry"/></mxCell><mxCell id="818" value="I minimized the Functions box to show that I've moved all out to their specified classes&amp;nbsp;&amp;nbsp;" style="text;html=1;strokeColor=none;fillColor=none;align=center;verticalAlign=middle;whiteSpace=wrap;rounded=0;" parent="1" vertex="1"><mxGeometry x="860" y="390" width="200" height="60" as="geometry"/></mxCell></root></mxGraphModel></diagram></mxfile>